<?xml version="1.0" encoding="utf-8"?>
<!-- Generator: Adobe Illustrator 17.0.0, SVG Export Plug-In . SVG Version: 6.00 Build 0)  -->
<!DOCTYPE svg PUBLIC "-//W3C//DTD SVG 1.1//EN" "http://www.w3.org/Graphics/SVG/1.1/DTD/svg11.dtd">
<svg version="1.1" id="隔离模式" xmlns="http://www.w3.org/2000/svg" xmlns:xlink="http://www.w3.org/1999/xlink" x="0px"
	 y="0px" width="160px" height="160px" viewBox="0 0 160 160" enable-background="new 0 0 160 160" xml:space="preserve">
<circle opacity="0.1" cx="80" cy="80" r="70"/>
<path fill="#FFFFFF" d="M65.401,103c-0.205,0-0.41-0.053-0.592-0.16c-0.367-0.211-0.592-0.602-0.592-1.025V58.185
	c0-0.423,0.226-0.814,0.592-1.025c0.366-0.213,0.819-0.213,1.185,0l37.785,21.814c0.367,0.211,0.592,0.602,0.592,1.025
	s-0.226,0.814-0.592,1.025L65.993,102.84C65.81,102.947,65.605,103,65.401,103z"/>
<path fill="#FFFFFF" d="M80,0C35.817,0,0,35.817,0,80s35.817,80,80,80c44.183,0,80-35.817,80-80S124.183,0,80,0z M80,150
	c-38.66,0-70-31.34-70-70s31.34-70,70-70c38.66,0,70,31.34,70,70S118.66,150,80,150z"/>
</svg>
