<svg xmlns="http://www.w3.org/2000/svg" width="74" height="59.211" viewBox="0 0 74 59.211"><g fill="none" stroke-linecap="round" stroke-linejoin="round" stroke-miterlimit="10"><g stroke="#E99313"><circle cx="13.119" cy="15.121" r="2.223"/><circle cx="20.765" cy="15.121" r="2.223"/><circle cx="28.411" cy="15.121" r="2.223"/></g><path stroke="#898989" stroke-width="2" d="M40.53 21.506V4.336A3.338 3.338 0 0 0 37.19 1H4.34A3.338 3.338 0 0 0 1 4.335v21.863c0 6.355 5.16 11.507 11.526 11.507v-8.172H33.47"/><path stroke="#898989" stroke-width="2" d="M36.81 21.506h32.85A3.338 3.338 0 0 1 73 24.84v21.864c0 6.355-5.16 11.507-11.526 11.507v-8.17H36.81a3.338 3.338 0 0 1-3.34-3.336V24.84a3.34 3.34 0 0 1 3.34-3.334z"/><g stroke="#E99313"><circle cx="45.589" cy="35.031" r="2.223"/><circle cx="53.235" cy="35.031" r="2.223"/><circle cx="60.881" cy="35.031" r="2.223"/></g></g></svg>