<svg xmlns="http://www.w3.org/2000/svg" width="74" height="69.824" viewBox="0 0 74 69.824"><path fill="none" stroke="#898989" stroke-linecap="round" stroke-linejoin="round" stroke-miterlimit="10" d="M28.142 17.895h18.04"/><path fill="none" stroke="#898989" stroke-width="2" stroke-linecap="round" stroke-linejoin="round" stroke-miterlimit="10" d="M53.574 34.24c0 9.1-7.348 16.478-16.413 16.478S20.75 43.34 20.75 34.24V17.478C20.75 8.378 28.096 1 37.16 1c5.212 0 9.856 2.44 12.862 6.24a16.445 16.445 0 0 1 3.55 10.237V34.24z"/><path fill="none" stroke="#898989" stroke-width="2" stroke-linecap="round" stroke-linejoin="round" stroke-miterlimit="10" d="M25.686 46.94C15.436 50.264 6.363 58.565 1 68.825h71.907c-5.202-10.19-14.268-18.41-24.39-21.786"/><path fill="none" stroke="#EA5514" stroke-width="2" stroke-linecap="round" stroke-linejoin="round" stroke-miterlimit="10" d="M65.515 27.428v-.273M58.03 8.488a7.486 7.486 0 0 1 14.97 0 7.487 7.487 0 0 1-3.93 6.59c-2.176 1.074-3.555 2.517-3.555 4.68v3.18"/></svg>