<svg xmlns="http://www.w3.org/2000/svg" width="69" height="68.734" viewBox="0 0 69 68.734"><g fill="none" stroke-linecap="round" stroke-linejoin="round" stroke-miterlimit="10"><path stroke="#898989" stroke-width="2" d="M49.48 1H5.093A4.102 4.102 0 0 0 1 5.11v58.514c0 2.27 1.833 4.11 4.093 4.11H58.75"/><g stroke="#898989"><path stroke-width="2" d="M68 54.024l-9.26 13.673-9.26-13.673V15.05c0-5.115 4.146-9.262 9.26-9.262S68 9.935 68 15.05v38.974z"/><path d="M50.295 54.057A9.26 9.26 0 0 1 58.74 48.6a9.262 9.262 0 0 1 8.464 5.5M53.546 60.026a9.212 9.212 0 0 1 5.194-1.593c1.925 0 3.714.588 5.195 1.594M49.48 24.09c0-5.115 4.146-9.262 9.26-9.262S68 18.974 68 24.09M56.054 15.212v33.692M61.426 15.212v33.692"/></g><g stroke="#898989"><path d="M48.66 53.818H1.18M48.66 14.917H1.18"/></g><g stroke-width="2"><path stroke="#339DD1" d="M19.394 25.292l15.718 9.075-15.718 9.075z"/><circle stroke="#898989" cx="24.919" cy="34.367" r="14.455"/></g></g></svg>