<?xml version="1.0" encoding="utf-8"?>
<!-- Generator: Adobe Illustrator 17.0.0, SVG Export Plug-In . SVG Version: 6.00 Build 0)  -->
<!DOCTYPE svg PUBLIC "-//W3C//DTD SVG 1.1//EN" "http://www.w3.org/Graphics/SVG/1.1/DTD/svg11.dtd">
<svg version="1.1" id="图层_1" xmlns="http://www.w3.org/2000/svg" xmlns:xlink="http://www.w3.org/1999/xlink" x="0px" y="0px"
	 width="100.696px" height="18.682px" viewBox="0 0 100.696 18.682" enable-background="new 0 0 100.696 18.682"
	 xml:space="preserve">
<g>
	<rect x="23.57" y="0" fill="#555555" width="3.45" height="2.773"/>
	<g>
		<path fill="#555555" d="M95.563,0.343v0.446h-1.594V5.03H93.43V0.788h-1.594V0.343H95.563z"/>
		<path fill="#555555" d="M100.157,1.726c0-0.078,0.024-0.312,0.071-0.703c0.015-0.125,0.023-0.211,0.023-0.258l-0.023-0.023
			c-0.047,0.25-0.102,0.454-0.164,0.61l-1.5,3.68h-0.305l-1.476-3.703c-0.062-0.25-0.109-0.445-0.141-0.586l-0.023,0.023
			c0.032,0.407,0.047,0.735,0.047,0.985V5.03h-0.492V0.343h0.703l1.359,3.398c0.062,0.188,0.125,0.407,0.188,0.656h0.023
			c0.047-0.219,0.109-0.43,0.188-0.633l1.36-3.422h0.703V5.03h-0.539V1.726z"/>
	</g>
	<polygon fill="#555555" points="15.72,11.016 12.813,0 9.319,0 6.401,11.204 3.361,0 0,0 4.094,14.61 8.498,14.61 10.971,5.07 
		11.016,5.07 13.612,14.61 17.927,14.61 21.655,0 18.426,0 	"/>
	<rect x="23.57" y="3.816" fill="#555555" width="3.45" height="10.794"/>
	<rect x="29.146" y="0" fill="#555555" width="3.45" height="14.61"/>
	<path fill="#555555" d="M43.368,4.229c-0.338-0.255-0.753-0.412-1.209-0.412h-6.072c-1.113,0-2.015,0.902-2.015,2.015v6.763
		c0,1.113,0.902,2.015,2.015,2.015h6.072c0.456,0,0.872-0.157,1.209-0.412v0.412h3.472V0h-3.472V4.229z M42.965,13.468h-5.109
		c-0.223,0-0.403-0.18-0.403-0.403v-7.66c0-0.223,0.181-0.403,0.403-0.403h5.109c0.223,0,0.403,0.18,0.403,0.403v7.66
		C43.368,13.287,43.188,13.468,42.965,13.468z"/>
	<path fill="#555555" d="M57.18,4.229c-0.338-0.255-0.753-0.412-1.209-0.412h-6.072c-1.113,0-2.015,0.902-2.015,2.015v6.763
		c0,1.113,0.902,2.015,2.015,2.015h6.072c0.456,0,0.872-0.157,1.209-0.412v0.412h3.472V0H57.18V4.229z M56.777,13.468h-5.109
		c-0.223,0-0.403-0.18-0.403-0.403v-7.66c0-0.223,0.18-0.403,0.403-0.403h5.109c0.223,0,0.403,0.18,0.403,0.403v7.66
		C57.18,13.287,56.999,13.468,56.777,13.468z"/>
	<path fill="#555555" d="M84.913,3.413v0.815c-0.337-0.255-0.753-0.412-1.209-0.412h-6.072c-1.113,0-2.015,0.902-2.015,2.015v6.763
		c0,1.113,0.902,2.015,2.015,2.015h6.072c0.456,0,0.872-0.157,1.209-0.412v0.412v2.483c0,0.223-0.18,0.403-0.403,0.403h-8.894
		l0.491,1.186H86.37c1.113,0,2.015-0.902,2.015-2.015V14.61v-1.244V3.413H84.913z M84.51,13.468h-5.109
		c-0.223,0-0.403-0.18-0.403-0.403v-7.66c0-0.223,0.18-0.403,0.403-0.403h5.109c0.223,0,0.403,0.18,0.403,0.403v7.491v0.169
		C84.913,13.287,84.732,13.468,84.51,13.468z"/>
	<path fill="#555555" d="M72.29,3.816h-8.647c-1.113,0-2.015,0.902-2.015,2.015v6.763c0,1.113,0.902,2.015,2.015,2.015h8.647
		c1.113,0,2.015-0.902,2.015-2.015V5.832C74.306,4.718,73.404,3.816,72.29,3.816z M70.924,13.043c0,0.223-0.18,0.403-0.403,0.403
		h-5.109c-0.223,0-0.403-0.18-0.403-0.403v-7.66c0-0.223,0.18-0.403,0.403-0.403h5.109c0.223,0,0.403,0.18,0.403,0.403V13.043z"/>
</g>
</svg>
