<?xml version="1.0" encoding="utf-8"?>
<!-- Generator: Adobe Illustrator 17.0.0, SVG Export Plug-In . SVG Version: 6.00 Build 0)  -->
<!DOCTYPE svg PUBLIC "-//W3C//DTD SVG 1.1//EN" "http://www.w3.org/Graphics/SVG/1.1/DTD/svg11.dtd">
<svg version="1.1" id="图层_1" xmlns="http://www.w3.org/2000/svg" xmlns:xlink="http://www.w3.org/1999/xlink" x="0px" y="0px"
	 width="145.26px" height="28px" viewBox="0 0 145.26 28" enable-background="new 0 0 145.26 28" xml:space="preserve">
<g>
	<path fill="#666666" d="M43.854,25.737H38.01V8.549h6.016c5.328,0.172,8.078,3.037,8.25,8.594
		C52.39,22.987,49.583,25.851,43.854,25.737z M43.94,10.267H39.9v14.01h3.954c4.354-0.058,6.502-2.407,6.445-7.048
		c-0.173-4.47-2.293-6.79-6.36-6.96L43.94,10.267z M60.01,25.995c-3.725-0.23-5.672-2.32-5.844-6.274
		c0.114-4.41,2.12-6.674,6.016-6.79c3.61,0.173,5.5,2.35,5.672,6.532c-0.058,4.297-2.006,6.474-5.844,6.53L60.01,25.995z
		 M60.096,14.393c-2.636,0.058-3.982,1.805-4.04,5.242c0.058,3.21,1.404,4.87,4.04,4.984c2.463-0.114,3.724-1.805,3.78-5.07
		C63.706,16.341,62.446,14.622,60.096,14.393z M73.417,14.479c-2.464,0-3.695,1.69-3.695,5.07c0,3.323,1.23,4.984,3.695,4.984
		c2.005,0,3.094-1.088,3.266-3.266l1.89,0.43c-0.458,2.98-2.205,4.41-5.24,4.297c-3.668-0.116-5.53-2.264-5.587-6.446
		c0.114-4.24,1.947-6.445,5.5-6.617c2.75,0.058,4.47,1.29,5.156,3.695l-1.805,0.602C76.081,15.508,75.02,14.593,73.417,14.479
		L73.417,14.479z M88.8,13.19h1.804v12.46H88.8v-1.718c-0.918,1.317-2.293,2.005-4.126,2.063c-2.922,0.057-4.354-1.49-4.297-4.64
		V13.19h1.805v7.992c0.057,2.234,1.03,3.38,2.922,3.438c2.234-0.23,3.466-1.403,3.695-3.523L88.8,13.19L88.8,13.19z M110.627,17.487
		v8.164h-1.805v-7.734c0.057-2.406-0.803-3.58-2.578-3.523c-1.948,0.17-3.008,1.374-3.18,3.608v7.648h-1.805v-7.734
		c0.056-2.406-0.774-3.58-2.493-3.523c-1.948,0.17-3.037,1.317-3.266,3.437v7.82h-1.804V13.19H95.5v1.89
		c0.917-1.488,2.064-2.233,3.44-2.233c2.118,0,3.407,0.89,3.866,2.664c0.916-1.775,2.148-2.664,3.695-2.664
		C109.311,12.789,110.685,14.337,110.627,17.487L110.627,17.487z M122.487,21.785l1.89,0.515c-0.687,2.52-2.52,3.752-5.5,3.695
		c-3.838-0.172-5.814-2.29-5.93-6.36c0.173-4.296,2.12-6.53,5.845-6.702c3.666,0.115,5.557,2.35,5.672,6.703v0.43h-9.54
		c0.115,2.81,1.404,4.298,3.868,4.47C120.739,24.536,121.972,23.619,122.487,21.785L122.487,21.785z M115.01,18.518h7.477
		c-0.115-2.52-1.347-3.838-3.695-3.953C116.442,14.795,115.182,16.112,115.01,18.518z M137.182,17.659v7.992h-1.805v-7.734
		c-0.058-2.29-1.03-3.466-2.922-3.523c-2.234,0.286-3.467,1.49-3.695,3.608v7.648l-1.805,0.086V13.19h1.805v1.89
		c0.974-1.43,2.35-2.176,4.125-2.233C135.75,12.847,137.182,14.451,137.182,17.659z M144.917,24.619l0.344,0.945
		c-0.602,0.234-1.244,0.351-1.89,0.343c-1.776,0.057-2.636-0.86-2.578-2.75v-8.422h-1.72V13.19h1.72V9.838l1.805-0.945v4.297h2.32
		v1.547h-2.32v8.422c-0.058,1.09,0.4,1.604,1.375,1.547C144.316,24.706,144.63,24.678,144.917,24.619L144.917,24.619z"/>
</g>
<path fill="#E6501E" d="M14.508,25.875c0.32-0.586,0.894-1.184,0.917-2.863c0.023-1.678-1.26-2.828-1.353-2.874
	c-0.092-0.046-1.043-0.77-2.785-0.713c-1.742,0.057-2.694,0.218-3.244,0.287c-0.55,0.07-1.697,0.218-2.315,0.218
	c-0.62,0-1.502-0.195-1.89-0.39c-0.39-0.196-1.32-0.872-1.71-1.62s-0.56-1.59-0.56-1.59l4.928-2.218c0,0,0.585-0.3,0.825-0.598
	s0.368-0.586,0.368-0.586s0.023-0.897,0.252-1.483c0.23-0.586,0.62-0.85,0.62-0.85L10.954,8.5c0,0-1.141-1.234-1.352-2.274
	c-0.47-2.314-0.255-4.398-0.255-4.398s1.004,2.228,1.238,2.635c0.36,0.627,0.92,1.224,0.92,1.224s0.013-0.58,0.4-1.53
	c0.148-0.36,1.004-1.762,1.004-1.762s0.335,1.13,0.817,1.717c0.353,0.43,0.588,0.535,1.205,0.818c0.722,0.332,1.1,0.94,1.49,1.615
	c0.074,0.13,0.217,0.402,0.217,0.402s1.94,0.245,4.014,1.073s4.08,2.322,4.08,2.322l-2.225,0.437c0,0,2.108,0.482,3.67,1.78
	c1.308,1.09,1.81,1.676,1.82,1.69c-0.002-0.07,0-0.14,0-0.21C28,6.287,21.732,0,14,0S0,6.286,0,14.04C0,21.28,5.464,27.24,12.483,28
	C12.499,27.985,14.189,26.458,14.508,25.875z"/>
</svg>
