<?xml version="1.0" encoding="utf-8"?>
<!-- Generator: Adobe Illustrator 17.0.0, SVG Export Plug-In . SVG Version: 6.00 Build 0)  -->
<!DOCTYPE svg PUBLIC "-//W3C//DTD SVG 1.1//EN" "http://www.w3.org/Graphics/SVG/1.1/DTD/svg11.dtd">
<svg version="1.1" id="图层_1" xmlns="http://www.w3.org/2000/svg" xmlns:xlink="http://www.w3.org/1999/xlink" x="0px" y="0px"
	 width="145.26px" height="28px" viewBox="0 0 145.26 28" enable-background="new 0 0 145.26 28" xml:space="preserve">
<metadata><?xpacket begin="﻿" id="W5M0MpCehiHzreSzNTczkc9d"?>
<x:xmpmeta xmlns:x="adobe:ns:meta/" x:xmptk="Adobe XMP Core 5.5-c014 79.151739, 2013/04/03-12:12:15        ">
   <rdf:RDF xmlns:rdf="http://www.w3.org/1999/02/22-rdf-syntax-ns#">
      <rdf:Description rdf:about=""
            xmlns:dc="http://purl.org/dc/elements/1.1/"
            xmlns:xmp="http://ns.adobe.com/xap/1.0/"
            xmlns:xmpGImg="http://ns.adobe.com/xap/1.0/g/img/"
            xmlns:xmpMM="http://ns.adobe.com/xap/1.0/mm/"
            xmlns:stRef="http://ns.adobe.com/xap/1.0/sType/ResourceRef#"
            xmlns:stEvt="http://ns.adobe.com/xap/1.0/sType/ResourceEvent#"
            xmlns:illustrator="http://ns.adobe.com/illustrator/1.0/"
            xmlns:xmpTPg="http://ns.adobe.com/xap/1.0/t/pg/"
            xmlns:stDim="http://ns.adobe.com/xap/1.0/sType/Dimensions#"
            xmlns:xmpG="http://ns.adobe.com/xap/1.0/g/"
            xmlns:pdf="http://ns.adobe.com/pdf/1.3/">
         <dc:format>image/svg+xml</dc:format>
         <dc:title>
            <rdf:Alt>
               <rdf:li xml:lang="x-default">打印</rdf:li>
            </rdf:Alt>
         </dc:title>
         <xmp:MetadataDate>2015-12-28T12:32:04+08:00</xmp:MetadataDate>
         <xmp:ModifyDate>2015-12-28T12:32:04+08:00</xmp:ModifyDate>
         <xmp:CreateDate>2015-12-28T12:32:04+08:00</xmp:CreateDate>
         <xmp:CreatorTool>Adobe Illustrator CC (Windows)</xmp:CreatorTool>
         <xmp:Thumbnails>
            <rdf:Alt>
               <rdf:li rdf:parseType="Resource">
                  <xmpGImg:width>256</xmpGImg:width>
                  <xmpGImg:height>52</xmpGImg:height>
                  <xmpGImg:format>JPEG</xmpGImg:format>
                  <xmpGImg:image>/9j/4AAQSkZJRgABAgEASABIAAD/7QAsUGhvdG9zaG9wIDMuMAA4QklNA+0AAAAAABAASAAAAAEA&#xA;AQBIAAAAAQAB/+4ADkFkb2JlAGTAAAAAAf/bAIQABgQEBAUEBgUFBgkGBQYJCwgGBggLDAoKCwoK&#xA;DBAMDAwMDAwQDA4PEA8ODBMTFBQTExwbGxscHx8fHx8fHx8fHwEHBwcNDA0YEBAYGhURFRofHx8f&#xA;Hx8fHx8fHx8fHx8fHx8fHx8fHx8fHx8fHx8fHx8fHx8fHx8fHx8fHx8fHx8f/8AAEQgANAEAAwER&#xA;AAIRAQMRAf/EAaIAAAAHAQEBAQEAAAAAAAAAAAQFAwIGAQAHCAkKCwEAAgIDAQEBAQEAAAAAAAAA&#xA;AQACAwQFBgcICQoLEAACAQMDAgQCBgcDBAIGAnMBAgMRBAAFIRIxQVEGE2EicYEUMpGhBxWxQiPB&#xA;UtHhMxZi8CRygvElQzRTkqKyY3PCNUQnk6OzNhdUZHTD0uIIJoMJChgZhJRFRqS0VtNVKBry4/PE&#xA;1OT0ZXWFlaW1xdXl9WZ2hpamtsbW5vY3R1dnd4eXp7fH1+f3OEhYaHiImKi4yNjo+Ck5SVlpeYmZ&#xA;qbnJ2en5KjpKWmp6ipqqusra6voRAAICAQIDBQUEBQYECAMDbQEAAhEDBCESMUEFURNhIgZxgZEy&#xA;obHwFMHR4SNCFVJicvEzJDRDghaSUyWiY7LCB3PSNeJEgxdUkwgJChgZJjZFGidkdFU38qOzwygp&#xA;0+PzhJSktMTU5PRldYWVpbXF1eX1RlZmdoaWprbG1ub2R1dnd4eXp7fH1+f3OEhYaHiImKi4yNjo&#xA;+DlJWWl5iZmpucnZ6fkqOkpaanqKmqq6ytrq+v/aAAwDAQACEQMRAD8A9S3V1b2tvJc3Miw28Kl5&#xA;ZXNFVRuSScjKQiLPJlCBkRGIsl4z5x/Oq/uJpLTy4Pq1qpK/XnUGV/dFaoRfmK/LOc1fbEiax7Dv&#xA;6vYaD2ehEcWbeXd0H6/xzYndaB5u1bzBNpc0s1/exQm65Suz1i9P1FYciftBgoHiaZgywZsmQwJM&#xA;pVf6XaQ1WnxYhMARiTW3fdMft7q8tJedvNJbzKftRsyMCPcEHMOMjE7GnPlCMxRAIZ15V/OPzDpc&#xA;iQ6qTqljUBi5/wBIUeKyftfJ/vGbTS9r5IbT9UftdJrewMOQXj9Evs+X6nt2i61putadFqGnTCa2&#xA;l6MNirDqrDqGHhnTYc0ckeKJsPF6jTzwzMJiiEdlrS7FXYq7FXYq7FXYq7FXYq7FXYq7FXYq7FXY&#xA;q7FXYq7FXYq7FXYq7FXYq7FXYq7FXiv51ecZri/Hly0kK2ttxe+4n7cpHJUP+SgIPz+Wc12xqyZe&#xA;GOQ5+97L2e0AjDxpfUeXkP2/jm8szRvTPoz8tL/TdY0Gz1NIQup2tumm3UtCCVhpQV6EHZvatM7D&#xA;s6ccmMSr1AcJ+D592viniyygT6JS4h8UJ+YH5XWnmNo7zTjFY6mpPrSFSEmUj9viPtA/tU6fRlev&#xA;7NGbeNRl97b2X2zLT3Gdyh9zyfX/AMtPN+iRtNcWf1i1Tdrm2PqoAOpIoHUe5XNDn7OzYtyLHeHq&#xA;dL2vp8xoSqXcdv2Ir8r/ADjL5f1+OCaT/cXfssV0hPwqxNEl9uJO/t9GWdm6s4slH6Zc/wBbV2zo&#xA;BnxEj647j9X46vorOvfP3Yq8z8+/mN5s0XzdBoOh2VrdtcQxyRJKkjSM7lhQcZIx+z4Yqg187fnW&#xA;DV/K8DKOoWKUH6P35/ViqI0r86xDqC6d5r0mXRpyQDNR+Iqerxuquq+45Yq9OilimiSaJxJFIoeO&#xA;RSCrKwqCCOoIxVdirsVdirsVdirsVdirsVdirsVdirsVdirsVdirsVdirsVdirGPI/nq182pfz2l&#xA;s9vbWkqxRNKRzcMvLkVFQvyqcVfOeqX0moand30led1NJM1etXYt/HOCyz45GXeX1PDjGOAiP4QA&#xA;m/kPy5F5h8z2umzlltW5SXLJ14RqWpXtyNFr75fodOM2URPLq4vaerOnwGY+ro+lbGws7C0is7KF&#xA;be2hHGKJBRQP8+pzs4QjAVEUA+c5MspyMpG5FXybBzAkEA0PY+GKvE/zI/LLXI57jXLL0bu3NXuI&#xA;beIQSIBuW9NSVf8AymG/tnNdodmzBM40R5Cnsuye2MRAxSuJ6Wb+3o9W8pag+oeWNLvZDykmtYml&#xA;bxfgA/8AwwOb3S5OPFGXeA8vrsXh5pxHISKbZkOK8g82/wDk89B/4xwfrlxV6/irHfPflGy8zaBc&#xA;Wkkam9RGexnoOSSgVUBv5WOzDFWK/kPr1xe+XLrSrhiz6VKoiLdRFNUqu/8AKyP9G2KorzL+Z94m&#xA;ut5c8p6d+l9XjJE7sT6MbL9pTQrXj+0SwAO3XFUs1Dz9+aXlxVvPMWg20mmFh6klqxBTkaAFlkmC&#xA;+3JfpxV6J5e8wadr+kQapp7lrecfZagdGGzI4BNGBxVhXmL80dTOvv5d8oaaNW1KAlbiWSvpIymj&#xA;LQFNlOzMWArtiqXXX5k/mH5algfzdoMI06VgpubQ7iu/2hJKnIdlPGtPpxVlHnHz0NL8mR+ZNHEV&#xA;5HO0XomTlwKSeIBUgjwxVkHl/UJdS0HTdRlVUlvbWG4kRa8Q0sauQK1NAWxVjP5k+edQ8q/or6nb&#xA;wz/X5Xjk9bl8IXh9niV/mxVEfmZ5xvvKegwajZQRTyy3SW7JNy4hWjkevwlTWseKsdj89fmR5hQX&#xA;PlPRYf0ag4m7uyF9aQCj+mHkj+HlUDr7kHbFVPSPzomih1Gz8x6cYNfsiEgs4Aw+sSFggjCnmVbk&#xA;QepqNx7qrNT83/nNp1m+sXWh2cemxj1JYPtukXi4WXnsNyabdxirO/J3mm18z6DBqtuhiLkpPATU&#xA;xypsy1HUdwfDFWI+Y/zXv/03JoPlHTP0tqMJKzTMGaJWU0YBUKkhehYsBXFUBcfmP+ZPl1o5/Nfl&#xA;6IaazAPPbHdeR7uskyV8FalfHFXo0Ou2d75eOtac4nt3t3ngY1oeKk0YdQQRQjFXmui/nN5h1ix+&#xA;qadoyXvmOWVxHBFzEEcCqlJZCzd3Yj7QHv4qu1L8wfzS8sSQXXmXR7ZtMlcI7wdQTvxDrJIFanTk&#xA;N8VZtrvmLXJPLdjq3lGxTVJLxo3EUp40geNmLH4k+IMFBFcVeTflFq3nSzhuIdC0qO/spbiP67O7&#xA;UMe1NvjT9nfpiq7yB+WVt5gnvv0hetANNnNvcWkSj1SRXfk1QoJBH2T0OcpoezRlJ4jXCarq912n&#xA;2wcAjwRvjFgnk9o0HyvoOgQGHSrRLfkAJJN2ken8ztVj+rOkwabHiFQFPH6nWZc5vJK/uTXL3Fdi&#xA;rsVdiqyGGKGMRxII4xUhFFAKmp2HucAAHJMpEmyvwoeQebf/ACeeg/8AGOD9cuKvX8VdirxX8nLw&#xA;Qz+ctUhFbeFBMnhsZnXYey4qm35A2cb6NquryfHeXN4YZJW3YrHGsnX3aY1xV6bf2Ntf2NxZXSc7&#xA;e5jaKVPFXFD+vFXj35Nanc6ZpXm2zLcjpim5iXqOapIrmnv6S4qmf/OP9lGdD1TU2+K6uLv0XkO7&#xA;FYo1fr7mY4q9H1vRrDWtLuNMv0L2tyoWQA0OxBBB7EEYqwD819F07Rfyx/RunRGGzguIvTjLM9OT&#xA;lju5Y7k1xVmnkr/lDdB/7Z1p/wAmExV5/wDn3/0zn/MRL/zLxVG/85Af8obZ/wDbRi/5MTYqzvy5&#xA;bw23l/TYIVCRR2sKoo8PTGKvMJ7K2n/5yDT1EBCRrMB2MiWnwsfkQD9GKvV9TiSXTbuJxVJIZFYe&#xA;IZSDiryv8or2Ww/KzzBfRGktrNeTxn/KjtImH4jFWNfld580fytp139Y026u767mq9zAiMPTVRxS&#xA;rEGvIsT88VZVrH5x+X9U0q706fRdQMV3C8TVjQgc1IB+12O+Ktfk/cXR/L7XLOdXUWzTtEHBFFkg&#xA;BoK/5QJ+nFVX/nHyxt18uajfBR9YlvDA79+EUSMo++U4qyr80oIp/IGsrIKhYRIvsyOrKfvGKqP5&#xA;QyNJ+XWjs3UCdfoW4kUfgMVYt/zj1/xxtW/5iI/+IYqlv5hQ655L84t5g0aQw22qVZzTlGZessci&#xA;nY8j8Y+e3TOa14nps3iQ2Evwf1vZdlyxazT+FkFmHzroR9yXy/nh5zdAqx2cRAoXSJyT7/FIw/DK&#xA;j21mP835ftb4+zmnB5yPx/Yg0/OLz6soc3sbKOsZgi4nfvRQ345UO1s98/sDcewdLVcJ+ZeyeQvN&#xA;y+aNBW/aMQ3UbmG6iX7IkUA1Wu/FlYHf5Z0eh1Xj4+LkeryHaeh/LZeC7jzDI8zHXuxV2KuxV415&#xA;5vLWy/OrRbq7lWC2hhgaWaQhVUcpNyTir0X/AJWD5I/6vll/yOT+uKsK89fm7p09lLovlUvqGpXo&#xA;MAniRuKB/hPp1AZ3P7PEU71xVP8A8s/I7+X/ACpJZ6go+u6kWkvUBrwDLxWOo/lXr7k4qxD8t9bh&#xA;8j61qnlLzFILON5vWs7uX4YmJHDkWOwWRFUg9NiDirPfNP5ieWtD0ma6F/b3N1wP1S1hkWR5HI+H&#xA;ZCaLXq2KsW/JbytcReV9SvdQRk/Tx4hGFC0Cqyh6H+YytT23xVKPyt8wW3k7VdW8qeYpVsW9f1Le&#xA;4l+GIuBxarHZVdArKx2/DFWX+f8A8x9D0ny9dDTtShn1adDHZpbSJK6M+3qHiWChRvvirH/Mlv5o&#xA;1T8lfrWsO0+pgpeSAoqMIBJ8NQgUbRnkdsVZB+XPnjy5deUNOhmv7e1urC3jtriCaRY2X0VEYb4y&#xA;KhgoNRirz783POWma/rOl2mlP9YtNPlPq3ig+m8sjL8KN3ChOveuKsu/5yA/5Q2z/wC2jF/yYmxV&#xA;6Bon/HGsP+YaL/iAxV5l/wCvB/8ARv8A9imKvU73/eOf/jG//ETirzD8krGPUPy71ewkNI7u7uIH&#xA;PX4ZLaJD+vFUv/KzzPb+UrnUfKPmVxp80dwZYJ5fhiLFQrAudgrBQyMdj92Ks382fmV5Z0XSJ7iD&#xA;ULe8v2QiztYJFlZpCPhLcC3Fa9Sf14qo+VNb8xa35Bu9S1yCOCaeGc2wjVk5wiP4ZGVi1ORrSnah&#xA;xVJ/+cf/APlDbz/toy/8mIcVZN+Zn/KB61/zDn9YxVBfk7/5LjSP+jj/AKipcVYl+Qd/Y2unatbX&#xA;VxHBcfWIyIpHVGPwldgxHcUxV6jrmh6dremTadqEfqW8w6inJW7OhINGHY5VmwxyxMZcm/TameGY&#xA;nA7h4B5x/LTX/Ls0kqxNe6XUlLyJSeK/8WqKlD79PfOT1fZ2TCb5x7/1vd6DtfFqBV8M+4/o72I5&#xA;r3bPof8AKTy5eaJ5VH11THc30puWhYUZFKqqKw8aLX6c6/srTnHi9XORt4DtzVxzZ/TyiKZrmydM&#xA;7FXYq7FUi1ryN5U1u8F7qunpdXIQRiRmkU8VJIFFZR3xVAD8qfy+BBGjRVG+7yn9b4qnOk+WPL2j&#xA;knTNOt7RzsZI41DkeBf7X44qmeKpbrflvQdchWLVrGK7VfsFx8a1/lcUZfoOKpNY/lZ5AsbhZ4NH&#xA;jMimq+q8sy1H+TK7r+GKsrAAAAFANgBiqU675T8ua8qrq9hFdFBRJGqsig9hIhVwPpxVLNO/K7yF&#xA;p90l1baRH6yGqGV5ZgCOh4yu61+jFWUOiupRwGVgQykVBB6gjFWJ3H5Tfl7cXDTyaOgkY8iI5Zo0&#xA;r7Ijqg+7FUyk8k+U5LS2s20q3+rWbF7eILxCs1OTbUqTxFScVRusaHpGs2y2uqWqXdujiVY5KkBw&#xA;Cobb2Y4qjIoo4okijULHGoVFHQKBQDFUD/h7Rf0z+mvqcf6V48frdDzpx4U6/wAu2Ko9lV1KsKqw&#xA;II8QcVQWj6HpGjWzWul2qWlu7mVo46gFyApbf2UYqoa75V8u68irq9hFdlBRJGBWRR4LIpVwPkcV&#xA;Siz/ACp/L6znWeHR4zIpqBLJNMtR/kSu6n7sVZTLBFLA8DqDC6lGToCpFCNvbFUJo2haRotq1ppV&#xA;qlpbu5kaOOtC5AUsak70UYqr31jaX9pLZ3kSz2s68ZYm+yy+BxVbpumWGmWUdjYQLb2kPL0oU+yv&#xA;JizU+bMTiqQ3v5Z+Rr3UH1C40mNruRi7uryorMdyxRHVCSdztirJ8VdirFrj/lWv6Yt/V/Rn6W9U&#xA;ejx9H1fV/Zrx3rXpy75gy/LcYvg478rdnD854ZrxOCvOqZTmc6x2KuxV2KuxV2KuxV2KuxV2KuxV&#xA;2KuxV2KuxV2KuxV2KuxV2KuxV2KuxV2KuxV2KuxV2KuxV//Z</xmpGImg:image>
               </rdf:li>
            </rdf:Alt>
         </xmp:Thumbnails>
         <xmpMM:InstanceID>xmp.iid:3b51be11-1803-5643-a54b-fcca355b9206</xmpMM:InstanceID>
         <xmpMM:DocumentID>xmp.did:3b51be11-1803-5643-a54b-fcca355b9206</xmpMM:DocumentID>
         <xmpMM:OriginalDocumentID>uuid:5D20892493BFDB11914A8590D31508C8</xmpMM:OriginalDocumentID>
         <xmpMM:RenditionClass>proof:pdf</xmpMM:RenditionClass>
         <xmpMM:DerivedFrom rdf:parseType="Resource">
            <stRef:instanceID>uuid:ac95c21a-360a-4ecf-b50d-18deafd85636</stRef:instanceID>
            <stRef:documentID>xmp.did:3c521b3c-8e17-6442-b5cb-0001c5ab3e1b</stRef:documentID>
            <stRef:originalDocumentID>uuid:5D20892493BFDB11914A8590D31508C8</stRef:originalDocumentID>
            <stRef:renditionClass>proof:pdf</stRef:renditionClass>
         </xmpMM:DerivedFrom>
         <xmpMM:History>
            <rdf:Seq>
               <rdf:li rdf:parseType="Resource">
                  <stEvt:action>saved</stEvt:action>
                  <stEvt:instanceID>xmp.iid:3b51be11-1803-5643-a54b-fcca355b9206</stEvt:instanceID>
                  <stEvt:when>2015-12-28T12:32:04+08:00</stEvt:when>
                  <stEvt:softwareAgent>Adobe Illustrator CC (Windows)</stEvt:softwareAgent>
                  <stEvt:changed>/</stEvt:changed>
               </rdf:li>
            </rdf:Seq>
         </xmpMM:History>
         <illustrator:StartupProfile>Print</illustrator:StartupProfile>
         <xmpTPg:HasVisibleOverprint>False</xmpTPg:HasVisibleOverprint>
         <xmpTPg:HasVisibleTransparency>False</xmpTPg:HasVisibleTransparency>
         <xmpTPg:NPages>1</xmpTPg:NPages>
         <xmpTPg:MaxPageSize rdf:parseType="Resource">
            <stDim:w>145.259995</stDim:w>
            <stDim:h>28.000000</stDim:h>
            <stDim:unit>Pixels</stDim:unit>
         </xmpTPg:MaxPageSize>
         <xmpTPg:PlateNames>
            <rdf:Seq>
               <rdf:li>Cyan</rdf:li>
               <rdf:li>Magenta</rdf:li>
               <rdf:li>Yellow</rdf:li>
               <rdf:li>Black</rdf:li>
            </rdf:Seq>
         </xmpTPg:PlateNames>
         <xmpTPg:SwatchGroups>
            <rdf:Seq>
               <rdf:li rdf:parseType="Resource">
                  <xmpG:groupName>默认色板组</xmpG:groupName>
                  <xmpG:groupType>0</xmpG:groupType>
               </rdf:li>
            </rdf:Seq>
         </xmpTPg:SwatchGroups>
         <pdf:Producer>Adobe PDF library 10.01</pdf:Producer>
      </rdf:Description>
   </rdf:RDF>
</x:xmpmeta>
                                                                                                    
                                                                                                    
                                                                                                    
                                                                                                    
                                                                                                    
                                                                                                    
                                                                                                    
                                                                                                    
                                                                                                    
                                                                                                    
                                                                                                    
                                                                                                    
                                                                                                    
                                                                                                    
                                                                                                    
                                                                                                    
                                                                                                    
                                                                                                    
                                                                                                    
                                                                                                    
                           
<?xpacket end="w"?>
	</metadata>
<g>
	<path fill="#666666" d="M43.854,23.562H38.01V6.374h6.016c5.328,0.172,8.078,3.037,8.25,8.594
		C52.39,20.812,49.583,23.676,43.854,23.562z M43.94,8.093h-4.039v14.008h3.953c4.354-0.057,6.502-2.406,6.445-7.047
		C50.127,10.585,48.007,8.265,43.94,8.093z"/>
	<path fill="#666666" d="M60.01,23.819c-3.725-0.229-5.672-2.32-5.844-6.273c0.114-4.411,2.119-6.674,6.016-6.789
		c3.609,0.172,5.5,2.35,5.672,6.531C65.796,21.585,63.848,23.762,60.01,23.819z M60.096,12.218
		c-2.636,0.058-3.982,1.805-4.039,5.242c0.057,3.209,1.403,4.87,4.039,4.984c2.463-0.114,3.724-1.805,3.781-5.07
		C63.706,14.166,62.445,12.447,60.096,12.218z"/>
	<path fill="#666666" d="M73.417,12.304c-2.464,0-3.695,1.69-3.695,5.07c0,3.323,1.231,4.984,3.695,4.984
		c2.005,0,3.094-1.088,3.266-3.266l1.891,0.43c-0.459,2.979-2.206,4.411-5.242,4.297c-3.667-0.115-5.529-2.263-5.586-6.445
		c0.114-4.239,1.947-6.445,5.5-6.617c2.75,0.058,4.469,1.289,5.156,3.695l-1.805,0.602C76.081,13.335,75.02,12.419,73.417,12.304z"
		/>
	<path fill="#666666" d="M88.799,11.015h1.805v12.461h-1.805v-1.719c-0.917,1.317-2.292,2.005-4.125,2.063
		c-2.922,0.057-4.354-1.489-4.297-4.641v-8.164h1.805v7.992c0.057,2.234,1.031,3.381,2.922,3.438
		c2.234-0.229,3.466-1.403,3.695-3.523V11.015z"/>
	<path fill="#666666" d="M110.627,15.312v8.164h-1.805v-7.734c0.057-2.406-0.803-3.58-2.578-3.523
		c-1.948,0.172-3.008,1.375-3.18,3.609v7.648h-1.805v-7.734c0.057-2.406-0.773-3.58-2.492-3.523
		c-1.948,0.172-3.037,1.318-3.266,3.438v7.82h-1.805V11.015h1.805v1.891c0.916-1.489,2.063-2.234,3.438-2.234
		c2.119,0,3.408,0.889,3.867,2.664c0.916-1.775,2.148-2.664,3.695-2.664C109.309,10.614,110.684,12.161,110.627,15.312z"/>
	<path fill="#666666" d="M122.487,19.609l1.891,0.516c-0.688,2.521-2.521,3.752-5.5,3.695c-3.839-0.172-5.815-2.291-5.93-6.359
		c0.172-4.297,2.119-6.531,5.844-6.703c3.666,0.115,5.557,2.35,5.672,6.703c0,0.229,0,0.373,0,0.43h-9.539
		c0.114,2.808,1.403,4.297,3.867,4.469C120.739,22.359,121.971,21.443,122.487,19.609z M115.01,16.343h7.477
		c-0.115-2.521-1.347-3.838-3.695-3.953C116.442,12.619,115.182,13.937,115.01,16.343z"/>
	<path fill="#666666" d="M137.182,15.484v7.992h-1.805v-7.734c-0.058-2.291-1.031-3.466-2.922-3.523
		c-2.234,0.287-3.467,1.49-3.695,3.609v7.648l-1.805,0.086V11.015h1.805v1.891c0.974-1.432,2.349-2.177,4.125-2.234
		C135.75,10.671,137.182,12.276,137.182,15.484z"/>
	<path fill="#666666" d="M144.917,22.444l0.344,0.945c-0.573,0.229-1.203,0.344-1.891,0.344c-1.776,0.057-2.636-0.859-2.578-2.75
		v-8.422h-1.719v-1.546h1.719V7.663l1.805-0.945v4.297h2.32v1.547h-2.32v8.422c-0.058,1.089,0.4,1.604,1.375,1.547
		C144.315,22.53,144.629,22.502,144.917,22.444z"/>
</g>
<path fill="#E6501E" d="M14.508,25.875c0.321-0.586,0.894-1.184,0.917-2.863c0.023-1.678-1.261-2.828-1.353-2.874
	c-0.092-0.046-1.043-0.77-2.785-0.713c-1.742,0.057-2.694,0.218-3.244,0.287c-0.55,0.069-1.697,0.218-2.315,0.218
	c-0.619,0-1.502-0.195-1.891-0.391c-0.39-0.195-1.318-0.871-1.708-1.62s-0.562-1.588-0.562-1.588l4.929-2.219
	c0,0,0.585-0.299,0.825-0.598s0.367-0.586,0.367-0.586s0.023-0.897,0.252-1.483c0.229-0.586,0.619-0.851,0.619-0.851l2.396-2.092
	c0,0-1.142-1.236-1.353-2.276C9.133,3.912,9.347,1.828,9.347,1.828s1.004,2.228,1.238,2.635c0.361,0.627,0.92,1.224,0.92,1.224
	s0.013-0.579,0.401-1.529c0.147-0.36,1.003-1.763,1.003-1.763s0.336,1.13,0.818,1.717c0.353,0.43,0.588,0.535,1.205,0.818
	c0.722,0.332,1.099,0.941,1.489,1.615c0.075,0.13,0.218,0.402,0.218,0.402s1.94,0.245,4.015,1.073s4.081,2.322,4.081,2.322
	l-2.226,0.437c0,0,2.109,0.483,3.671,1.782c1.308,1.088,1.809,1.675,1.82,1.689c-0.002-0.069,0-0.139,0-0.209
	C28,6.286,21.732,0,14,0S0,6.286,0,14.041c0,7.24,5.464,13.2,12.483,13.959C12.499,27.985,14.189,26.458,14.508,25.875z"/>
</svg>
