<?xml version="1.0" encoding="utf-8"?>
<!-- Generator: Adobe Illustrator 17.0.0, SVG Export Plug-In . SVG Version: 6.00 Build 0)  -->
<!DOCTYPE svg PUBLIC "-//W3C//DTD SVG 1.1//EN" "http://www.w3.org/Graphics/SVG/1.1/DTD/svg11.dtd">
<svg version="1.1" id="图层_1" xmlns="http://www.w3.org/2000/svg" xmlns:xlink="http://www.w3.org/1999/xlink" x="0px" y="0px"
	 width="74px" height="74px" viewBox="0 0 74 74" enable-background="new 0 0 74 74" xml:space="preserve">
<g>
	<defs>
		<circle id="SVGID_5_" cx="121" cy="37" r="36"/>
	</defs>
	<clipPath id="SVGID_2_">
		<use xlink:href="#SVGID_5_"  overflow="visible"/>
	</clipPath>
	<g clip-path="url(#SVGID_2_)">
		<polyline fill="none" stroke="#2EA7E0" stroke-linecap="round" stroke-linejoin="round" stroke-miterlimit="10" points="
			97.296,26.312 97.876,23.571 94.384,22.251 93.26,24.909 90.234,23.857 90.177,20.661 90.1,16.397 79.87,16.564 79.934,16.789 
			79.362,16.573 73.323,16.672 73,17.866 81.045,20.663 84.409,32.236 85.113,34.852 88.501,36.794 90.481,37.73 90.54,41.604 
			90.622,45.46 92.753,47.774 91.084,55.68 92.423,60.35 100.411,47.338 102.121,44.585 94.402,39.878 94.574,39.041 90.464,36.648 
			89.411,35.88 87.058,34.166 90.399,32.988 93.311,31.961 96.841,28.368 97.296,26.312 		"/>
		<g>
			
				<polygon fill="none" stroke="#2EA7E0" stroke-width="0.2" stroke-linecap="round" stroke-linejoin="round" stroke-miterlimit="10" points="
				81.045,20.663 79.934,16.789 79.362,16.573 73.323,16.672 73,17.866 			"/>
		</g>
	</g>
	
		<use xlink:href="#SVGID_5_"  overflow="visible" fill="none" stroke="#2EA7E0" stroke-width="2" stroke-linecap="round" stroke-linejoin="round" stroke-miterlimit="10"/>
</g>
<path fill="none" stroke="#898989" stroke-width="2" stroke-linecap="round" stroke-linejoin="round" stroke-miterlimit="10" d="
	M52.4,3H7.171C4.867,3,3,4.875,3,7.188v59.624C3,69.125,4.867,71,7.171,71h54.674"/>
<g>
	<path fill="none" stroke="#898989" stroke-width="2" stroke-linecap="round" stroke-linejoin="round" stroke-miterlimit="10" d="
		M71.271,57.03l-9.436,13.933L52.4,57.03V17.317c0-5.212,4.224-9.438,9.436-9.438s9.436,4.225,9.436,9.438V57.03z"/>
	<path fill="none" stroke="#898989" stroke-linecap="round" stroke-linejoin="round" stroke-miterlimit="10" d="M53.23,57.063
		c1.479-3.279,4.776-5.561,8.605-5.561c3.846,0,7.155,2.302,8.624,5.603"/>
	<path fill="none" stroke="#898989" stroke-linecap="round" stroke-linejoin="round" stroke-miterlimit="10" d="M56.543,63.146
		c1.509-1.025,3.331-1.623,5.293-1.623c1.962,0,3.784,0.599,5.293,1.624"/>
	<path fill="none" stroke="#898989" stroke-linecap="round" stroke-linejoin="round" stroke-miterlimit="10" d="M52.4,26.528
		c0-5.212,4.224-9.438,9.436-9.438s9.436,4.225,9.436,9.438"/>
	
		<line fill="none" stroke="#898989" stroke-linecap="round" stroke-linejoin="round" stroke-miterlimit="10" x1="59.099" y1="17.482" x2="59.099" y2="51.813"/>
	
		<line fill="none" stroke="#898989" stroke-linecap="round" stroke-linejoin="round" stroke-miterlimit="10" x1="64.572" y1="17.482" x2="64.572" y2="51.813"/>
</g>
<g>
	
		<line fill="none" stroke="#898989" stroke-linecap="round" stroke-linejoin="round" stroke-miterlimit="10" x1="51.563" y1="56.819" x2="3.183" y2="56.819"/>
	
		<line fill="none" stroke="#898989" stroke-linecap="round" stroke-linejoin="round" stroke-miterlimit="10" x1="51.563" y1="17.181" x2="3.183" y2="17.181"/>
</g>
<g>
	
		<polygon fill="none" stroke="#EA5514" stroke-width="2" stroke-linecap="round" stroke-linejoin="round" stroke-miterlimit="10" points="
		21.743,27.753 37.759,37 21.743,46.247 	"/>
	
		<circle fill="none" stroke="#898989" stroke-width="2" stroke-linecap="round" stroke-linejoin="round" stroke-miterlimit="10" cx="27.373" cy="37" r="14.729"/>
</g>
</svg>
