<svg xmlns="http://www.w3.org/2000/svg" width="841.89" height="595.28" viewBox="0 0 841.89 595.28"><path fill="#DC4C21" d="M685.805 386.84c1.333-2.43 3.713-4.905 3.81-11.855.094-6.95-5.238-11.71-5.62-11.902s-4.33-3.19-11.568-2.952-11.188.906-13.473 1.19-7.046.906-9.617.906-6.237-.81-7.855-1.62c-1.62-.808-5.475-3.606-7.094-6.706-1.62-3.1-2.333-6.576-2.333-6.576l20.47-9.188s2.43-1.238 3.43-2.476 1.522-2.428 1.522-2.428.095-3.713 1.047-6.14c.952-2.43 2.57-3.524 2.57-3.524l9.95-8.665s-4.742-5.118-5.617-9.426c-1.946-9.585-1.058-18.218-1.058-18.218s4.168 9.227 5.14 10.91c1.5 2.594 3.82 5.07 3.82 5.07s.053-2.397 1.664-6.334c.61-1.49 4.165-7.3 4.165-7.3s1.395 4.682 3.395 7.11c1.465 1.78 2.444 2.215 5.005 3.387 3 1.374 4.564 3.897 6.183 6.69.31.537.905 1.666.905 1.666s8.056 1.015 16.673 4.442c8.618 3.428 16.95 9.617 16.95 9.617l-9.247 1.808s8.76 2 15.245 7.38c5.43 4.504 7.51 6.937 7.56 6.992.003-.29.01-.577.01-.867 0-32.113-26.032-58.145-58.145-58.145-32.112 0-58.145 26.032-58.145 58.145 0 29.983 22.695 54.662 51.843 57.804.07-.057 7.088-6.38 8.415-8.798z"/></svg>