<svg xmlns="http://www.w3.org/2000/svg" width="74" height="74" viewBox="0 0 74 74"><path fill="none" stroke="#898989" stroke-width="2" stroke-linejoin="round" stroke-miterlimit="10" d="M10.903 28.098a4.028 4.028 0 0 0-4.02 4.036v17.3c0 2.228 1.8 4.035 4.02 4.035s4.02-1.808 4.02-4.037v-17.3c0-2.228-1.8-4.035-4.02-4.035zM63.097 28.098a4.028 4.028 0 0 0-4.02 4.036v17.3c0 2.228 1.8 4.035 4.02 4.035 2.22 0 4.02-1.808 4.02-4.037v-17.3a4.03 4.03 0 0 0-4.02-4.035z"/><path fill="#898989" d="M55.555 28.098v26.114c0 2.488-2.01 4.504-4.487 4.504h-3.192v9.247c0 2.23-1.8 4.036-4.02 4.036a4.028 4.028 0 0 1-4.022-4.037v-9.247h-5.667v9.247c0 2.23-1.8 4.036-4.02 4.036a4.028 4.028 0 0 1-4.022-4.037v-9.247h-3.193c-2.478 0-4.487-2.017-4.487-4.504V28.098h37.11m0-2h-37.11a2 2 0 0 0-2 2v26.114c0 3.587 2.91 6.504 6.487 6.504h1.193v7.247c0 3.328 2.7 6.036 6.02 6.036s6.022-2.71 6.022-6.037v-7.247h1.667v7.247c0 3.328 2.7 6.036 6.02 6.036s6.022-2.71 6.022-6.037v-7.247h1.192c3.577 0 6.487-2.918 6.487-6.504V28.098a2 2 0 0 0-2-2z"/><path fill="#22AC38" d="M48.432 2a.913.913 0 0 1 .8 1.34l-2.99 5.636c5.087 2.922 8.68 8.162 9.313 14.298h-37.11c.633-6.136 4.227-11.376 9.312-14.298l-2.99-5.637a.913.913 0 0 1 .8-1.34c.326 0 .64.176.803.483l3.005 5.667A18.503 18.503 0 0 1 37 6.498c2.72 0 5.295.602 7.625 1.652l3.005-5.667A.908.908 0 0 1 48.432 2m0-2a2.9 2.9 0 0 0-2.57 1.547L43.7 5.63A20.34 20.34 0 0 0 37 4.497c-2.29 0-4.535.38-6.698 1.132l-2.165-4.083A2.9 2.9 0 0 0 24.2.344a2.917 2.917 0 0 0-1.2 3.93l2.127 4.01c-4.86 3.435-8.058 8.834-8.672 14.785a2 2 0 0 0 1.99 2.204h37.11a2 2 0 0 0 1.988-2.205c-.614-5.95-3.81-11.35-8.67-14.785l2.125-4.01a2.917 2.917 0 0 0-1.2-3.93A2.9 2.9 0 0 0 48.433 0z"/><g fill="none" stroke="#22AC38" stroke-miterlimit="10"><ellipse cx="29.53" cy="15.888" rx="1.804" ry="1.81"/><ellipse cx="44.47" cy="15.888" rx="1.804" ry="1.81"/></g></svg>