<svg xmlns="http://www.w3.org/2000/svg" width="74" height="74" viewBox="0 0 74 74"><path fill="none" stroke="#898989" stroke-linecap="round" stroke-linejoin="round" stroke-miterlimit="10" d="M28.142 19.983h18.04"/><path fill="none" stroke="#898989" stroke-width="2" stroke-linecap="round" stroke-linejoin="round" stroke-miterlimit="10" d="M53.574 36.328c0 9.1-7.348 16.478-16.413 16.478S20.75 45.43 20.75 36.328V19.566c0-9.1 7.348-16.478 16.413-16.478 5.213 0 9.857 2.44 12.863 6.24a16.445 16.445 0 0 1 3.55 10.237v16.763z"/><path fill="none" stroke="#898989" stroke-width="2" stroke-linecap="round" stroke-linejoin="round" stroke-miterlimit="10" d="M25.686 49.03C15.436 52.35 6.363 60.65 1 70.91h71.907c-5.202-10.19-14.268-18.41-24.39-21.786"/><path fill="none" stroke="#EA5514" stroke-width="2" stroke-linecap="round" stroke-linejoin="round" stroke-miterlimit="10" d="M65.515 29.516v-.273M58.03 10.576a7.486 7.486 0 0 1 14.97 0 7.487 7.487 0 0 1-3.93 6.59c-2.176 1.074-3.555 2.517-3.555 4.68v3.18"/></svg>