<svg xmlns="http://www.w3.org/2000/svg" width="76.307" height="22" viewBox="0 0 76.307 22"><g fill="#666"><path d="M10.372 16.8h4.723v-2.422h-4.723v-1.913h4.842V0H.598v12.465H5.47v1.913H.717v2.42H5.47v2.66H0V22h15.812v-2.54h-5.44V16.8zM9.924 1.882h1.016V5.23H9.924V1.884zm-4.006 8.64H4.902v-3.14H5.92l-.002 3.14zm0-5.292H4.902V1.884H5.92L5.917 5.23zm4.006 2.153h1.016v3.14H9.924v-3.14zM27.2 8.01l2.033-5.828V0H16.08v2.45h8.55l-2.003 5.56H22l-1.047-3.825H16.38l1.046 3.826H16.08v2.272h3.41v9.626h-1.974L18.383 22h5.77V10.282h1.195v5.022h4.274V8.01zM53.087 19.31V6.875h-11.24V19.31h5.86l.896-2.033h-2.3v-8.28h2.3V19.31z"/><path d="M48.782 1.584L49.534 0h-5.588l-1.92 4.095h-1.045l.6 2.212h4.99l.868-1.883h6.695v15.484h-1.226L53.894 22h5.41V1.584z"/><path d="M37.215 1.405l-.748-.897h-5.53l3.468 4.484-4.274 1.345v4.005l5.172-1.584v3.2l-5.17 1.553v4.096l5.17-1.584v3.168h-3.468L33.15 22h7.114V5.32L42.714 0h-4.842zM64.24 4.193V.495h-1.38V0h3.324v.495h-1.387v3.698h-.556zM66.736 4.193V0h.835l.993 2.97c.09.276.158.482.2.62.048-.153.122-.377.223-.672L69.99 0h.747v4.193h-.535V.683l-1.218 3.51h-.5L67.27.623v3.57h-.534z"/></g></svg>