<svg xmlns="http://www.w3.org/2000/svg" width="145.26" height="28" viewBox="0 0 145.26 28"><g fill="#666"><path d="M43.854 23.562H38.01V6.374h6.016c5.328.172 8.078 3.037 8.25 8.594.114 5.844-2.693 8.708-8.422 8.594zm.086-15.47H39.9v14.01h3.954c4.354-.058 6.502-2.407 6.445-7.048-.173-4.47-2.293-6.79-6.36-6.96zM60.01 23.82c-3.725-.23-5.672-2.32-5.844-6.274.114-4.41 2.12-6.674 6.016-6.79 3.61.173 5.5 2.35 5.672 6.532-.058 4.297-2.006 6.474-5.844 6.53zm.086-11.602c-2.636.058-3.982 1.805-4.04 5.242.058 3.21 1.404 4.87 4.04 4.984 2.463-.114 3.724-1.805 3.78-5.07-.17-3.208-1.43-4.927-3.78-5.156zM73.417 12.304c-2.464 0-3.695 1.69-3.695 5.07 0 3.323 1.23 4.984 3.695 4.984 2.005 0 3.094-1.088 3.266-3.266l1.89.43c-.458 2.98-2.205 4.41-5.24 4.297-3.668-.116-5.53-2.264-5.587-6.446.114-4.24 1.947-6.445 5.5-6.617 2.75.058 4.47 1.29 5.156 3.695l-1.805.602c-.516-1.72-1.577-2.635-3.18-2.75zM88.8 11.015h1.804v12.46H88.8v-1.718c-.918 1.317-2.293 2.005-4.126 2.063-2.922.057-4.354-1.49-4.297-4.64v-8.165h1.805v7.992c.057 2.234 1.03 3.38 2.922 3.438 2.234-.23 3.466-1.403 3.695-3.523v-7.907zM110.627 15.312v8.164h-1.805v-7.734c.057-2.406-.803-3.58-2.578-3.523-1.948.17-3.008 1.374-3.18 3.608v7.648h-1.805v-7.734c.056-2.406-.774-3.58-2.493-3.523-1.948.17-3.037 1.317-3.266 3.437v7.82h-1.804V11.015H95.5v1.89c.917-1.488 2.064-2.233 3.44-2.233 2.118 0 3.407.89 3.866 2.664.916-1.775 2.148-2.664 3.695-2.664 2.81-.058 4.184 1.49 4.127 4.64zM122.487 19.61l1.89.515c-.687 2.52-2.52 3.752-5.5 3.695-3.838-.172-5.814-2.29-5.93-6.36.173-4.296 2.12-6.53 5.845-6.702 3.666.115 5.557 2.35 5.672 6.703v.43h-9.54c.115 2.81 1.404 4.298 3.868 4.47 1.947 0 3.18-.917 3.695-2.75zm-7.477-3.267h7.477c-.115-2.52-1.347-3.838-3.695-3.953-2.35.23-3.61 1.547-3.782 3.953zM137.182 15.484v7.992h-1.805v-7.734c-.058-2.29-1.03-3.466-2.922-3.523-2.234.286-3.467 1.49-3.695 3.608v7.648l-1.805.086V11.015h1.805v1.89c.974-1.43 2.35-2.176 4.125-2.233 2.865 0 4.297 1.604 4.297 4.812zM144.917 22.444l.344.945a5.05 5.05 0 0 1-1.89.343c-1.776.057-2.636-.86-2.578-2.75V12.56h-1.72v-1.545h1.72V7.663l1.805-.945v4.297h2.32v1.547h-2.32v8.422c-.058 1.09.4 1.604 1.375 1.547.343 0 .657-.028.945-.086z"/></g><path fill="#E6501E" d="M14.508 25.875c.32-.586.894-1.184.917-2.863.023-1.678-1.26-2.828-1.353-2.874-.092-.046-1.043-.77-2.785-.713-1.742.057-2.694.218-3.244.287-.55.07-1.697.218-2.315.218-.62 0-1.502-.195-1.89-.39-.39-.196-1.32-.872-1.71-1.62s-.56-1.59-.56-1.59l4.928-2.218s.585-.3.825-.598.368-.586.368-.586.023-.897.252-1.483c.23-.586.62-.85.62-.85L10.954 8.5S9.813 7.266 9.602 6.226c-.47-2.314-.255-4.398-.255-4.398s1.004 2.228 1.238 2.635c.36.627.92 1.224.92 1.224s.013-.58.4-1.53c.148-.36 1.004-1.762 1.004-1.762s.335 1.13.817 1.717c.353.43.588.535 1.205.818.722.332 1.1.94 1.49 1.615.074.13.217.402.217.402s1.94.245 4.014 1.073 4.08 2.322 4.08 2.322l-2.225.437s2.108.482 3.67 1.78c1.308 1.09 1.81 1.676 1.82 1.69-.002-.07 0-.14 0-.21C28 6.287 21.732 0 14 0S0 6.286 0 14.04C0 21.28 5.464 27.24 12.483 28c.016-.015 1.706-1.542 2.025-2.125z"/></svg>