<svg xmlns="http://www.w3.org/2000/svg" width="70" height="70" viewBox="0 0 70 70"><g fill="#F29600"><path d="M28.194 57.373h-.063c-3.417-.032-5.93-3.16-7.937-6.216-4.99-7.595-6.05-17.054-2.516-22.492 2.3-3.542 5.977-5.742 9.594-5.742 1.875 0 3.345.524 4.767 1.03 1.21.433 2.355.84 3.613.84 1.152 0 2.104-.36 3.206-.776 1.36-.514 2.9-1.097 5.144-1.097 3.18 0 6.463 1.726 8.783 4.617l.37.463-.522.287c-3.18 1.743-4.93 4.92-4.68 8.5.257 3.648 2.514 6.707 5.892 7.983l.498.188-.22.485c-1.034 2.294-1.55 3.352-2.875 5.366-2.118 3.223-4.732 6.523-8.073 6.554-1.465 0-2.42-.438-3.342-.86-1.052-.482-2.14-.98-4.074-.98-2.033.01-3.152.51-4.235.992-.986.44-1.92.856-3.326.857zm-.924-33.45c-3.282 0-6.637 2.025-8.755 5.286-3.273 5.037-2.193 14.236 2.513 21.397 1.753 2.67 4.147 5.737 7.112 5.765l.054.5v-.5c1.194 0 1.994-.356 2.92-.77 1.122-.5 2.394-1.066 4.572-1.078 2.223 0 3.464.57 4.56 1.07.9.414 1.68.77 2.862.77 2.925-.026 5.33-3.1 7.3-6.103 1.2-1.822 1.696-2.794 2.587-4.755-3.473-1.52-5.77-4.786-6.042-8.648-.265-3.778 1.473-7.153 4.672-9.14-2.1-2.39-4.914-3.798-7.628-3.798-2.06 0-3.448.524-4.79 1.03-1.144.434-2.224.843-3.56.843-1.43 0-2.652-.436-3.947-.897-1.342-.48-2.73-.974-4.43-.974z"/><path d="M34.46 24.206l-.61-.016-.072-.397c-.428-2.328.428-5.066 2.29-7.325 1.69-2.053 4.58-3.605 7.03-3.774l.46-.032.068.457c.366 2.46-.445 5.185-2.227 7.472-1.71 2.195-4.434 3.614-6.94 3.614zm8.232-10.463c-2.086.302-4.432 1.635-5.853 3.36-1.565 1.9-2.346 4.147-2.138 6.097 2.114-.09 4.46-1.363 5.908-3.222.725-.93 2.316-3.332 2.082-6.235z"/></g><path fill="#888" d="M53.384 2C61.444 2 68 8.557 68 16.616v36.768C68 61.444 61.443 68 53.384 68H16.616C8.556 68 2 61.443 2 53.384V16.616C2 8.556 8.557 2 16.616 2h36.768m0-2H16.616C7.44 0 0 7.44 0 16.616v36.768C0 62.56 7.44 70 16.616 70h36.768C62.56 70 70 62.56 70 53.384V16.616C70 7.44 62.56 0 53.384 0z"/></svg>