<svg xmlns="http://www.w3.org/2000/svg" width="74" height="74" viewBox="0 0 74 74"><path fill="none" stroke="#898989" stroke-width="2" stroke-linecap="round" stroke-linejoin="round" stroke-miterlimit="10" d="M61.068 24.32c.116-.732.193-1.476.193-2.24 0-7.875-6.38-14.258-14.25-14.258-5.526 0-10.307 3.153-12.67 7.753a11.333 11.333 0 0 0-5.408-1.365c-5.887 0-10.73 4.47-11.325 10.203a14.01 14.01 0 0 0-2.64-.257C7.252 24.156 1 30.41 1 38.128S7.253 52.1 14.966 52.1h44.068C66.747 52.1 73 45.846 73 38.13c0-7.023-5.185-12.82-11.932-13.808z"/><g fill="none" stroke="#2EA7E0" stroke-miterlimit="10"><path d="M47.802 33.01c-2.505-2.506-5.966-4.056-9.788-4.056s-7.283 1.55-9.788 4.056"/><path d="M45.33 35.483c-1.872-1.873-4.46-3.032-7.316-3.032s-5.444 1.16-7.317 3.033M33.17 37.957c1.24-1.24 2.953-2.008 4.844-2.008s3.605.766 4.845 2.007"/><circle cx="38.014" cy="41.112" r="1.629"/></g><path fill="none" stroke="#898989" stroke-width="2" stroke-linecap="round" stroke-linejoin="round" stroke-miterlimit="10" d="M14.966 59.152h43.086M14.966 66.178h43.086"/></svg>