<svg xmlns="http://www.w3.org/2000/svg" xmlns:xlink="http://www.w3.org/1999/xlink" width="74" height="74" viewBox="0 0 74 74"><defs><circle id="a" cx="37" cy="37" r="36"/></defs><clipPath id="b"><use xlink:href="#a" overflow="visible"/></clipPath><g clip-path="url(#b)" fill="none" stroke="#2EA7E0" stroke-linecap="round" stroke-linejoin="round" stroke-miterlimit="10"><path d="M72.477 52.003l-.722 3.764 1.364-1.21zM64.8 51.28l-4.542-3.132-5.39 2.916.584 4.586 4.316-2.018 3.84 2.86 1.193-5.213M33.24 18.51l-1.438-.42-4.04 2.256 1.502 2.36M26.395 28.304l-2.09-.79-.55 2.433 1.486.517M24.51 26.602l1.596-.563-.45-4.544zM50.576 17.41l-13.793 2.136-2.808-.82-.735-.215M13.296 26.312l.58-2.74-3.492-1.32-1.124 2.657-3.026-1.053-.057-3.196-.077-4.263-10.23.167.064.225-.572-.217-6.04.1-.322 1.193 8.045 2.797L.41 32.236l.703 2.616L4.5 36.794l1.98.936.06 3.874.082 3.856 2.13 2.314-1.668 7.906 1.34 4.67 7.987-13.012 1.71-2.753-7.718-4.707.172-.837-4.11-2.392-1.053-.768-2.352-1.714 3.34-1.178 2.913-1.027 3.53-3.592.456-2.056M21.116 15.42l-1.208-4.983-6.86 2.77 2.378 3.038-1.166 5.51 2.168 1.47 4.862-7.09-.17-.716zM52.487 38.166l.648-.686-.702-5.503 2.31 3.8L64.57 25.37v2.475l5.814-4.83-1.79-1.902-18.018-3.702M25.24 30.464l-3.708 3.858-.2 3.797.597.228 5.607.818.138 1.322 1.08 9.58 2.19 1.162 4.257-7.82 4.34-7.975.977-1.793 4.208 6.453 3.396-3.578 2.168 5.72 2.195-4.07"/><g stroke-width=".2"><path d="M72.477 52.003l-.722 3.764 1.364-1.21zM44.812 19.444l5.764-2.033M44.812 19.444L30.418 24.52l-2.643 4.305 12.744 4.817M27.775 28.825l-1.38-.52-.29-2.266 4.313-1.52zM40.52 33.642l11.967 4.524.648-.686-.702-5.503M54.743 35.776l-2.31-3.8-1.857-14.565 18.017 3.703zM63.607 56.49l-3.84-2.858 5.034-2.353z"/><path d="M54.867 51.064l5.39-2.916 4.544 3.13-9.348 4.372zM30.946 51.23l-2.19-1.162-1.08-9.58L35.2 43.41z"/><path d="M39.543 35.435l-4.34 7.976-7.528-2.922M21.93 38.348l5.607.818M25.24 30.464l-3.708 3.86-.2 3.795.597.228M29.264 22.706l-1.502-2.36 4.04-2.256 1.438.42zM26.395 28.304l-2.09-.79-.55 2.433 1.486.517M26.106 26.04l-.45-4.544-1.145 5.106zM30.39 24.53l-4.284 1.51 3.165-3.337M33.975 18.725l7.037 2.058-10.595 3.733M7.084 55.68l1.34 4.67 7.987-13.012M16.41 47.338l1.71-2.753-7.718-4.708-.706 3.433M8.756 47.777L6.622 45.46l-.082-3.856 3.156 1.706"/><path d="M6.464 36.648l.076 4.956 3.156 1.706.878-4.27zM3.058 34.166l3.34-1.178-.164-9.13-9.19-3.195L.41 32.236zM9.31 31.96l3.53-3.592.456-2.056-7.062-2.455.165 9.13z"/><path d="M6.234 23.857l-.057-3.196-10.243-3.87 1.11 3.873zM1.113 34.852L.41 32.236l2.648 1.93z"/><path d="M4.5 36.794l-3.387-1.942 1.945-.686L5.41 35.88zM9.26 24.91l1.124-2.66 3.492 1.32-.58 2.742zM6.177 20.66L6.1 16.398l-10.23.168.064.224zM16.428 23.226l-2.168-1.47 1.166-5.51 5.693-.827.17.715zM44.727 40.095l-4.208-6.453 11.913-1.665zM50.292 42.238l-2.168-5.72 4.363 1.648zM65.043 48.12l-5.16-3.122 5.62.748zM53.88 46.105l-3.588-3.867 6.945.963zM59.458 46.932l-5.578-.827 6.003-1.107zM35.202 43.41l-1.535 3.945 1.438.702 1.162-4.235zM36.783 19.546l13.793-2.135-9.564 3.373z"/></g><path d="M29.27 22.703l-3.164 3.336.29 2.264M65.504 45.746l-5.62-.748 5.16 3.12zM57.237 43.2l-6.945-.962 3.588 3.867zM59.883 44.998l-6.003 1.107 5.578.827zM35.105 48.057l1.162-4.235-1.065-.41-1.535 3.943z"/></g><use xlink:href="#a" overflow="visible" fill="none" stroke="#2EA7E0" stroke-width="2" stroke-linecap="round" stroke-linejoin="round" stroke-miterlimit="10"/><circle fill="none" stroke="#898989" stroke-width="2" stroke-linecap="round" stroke-linejoin="round" stroke-miterlimit="10" cx="37" cy="37" r="36"/></svg>