<svg xmlns="http://www.w3.org/2000/svg" width="74" height="74" viewBox="0 0 74 74"><g fill="#22AC38"><path d="M23.86 26.85l9.933 21.524h-2.3l-3.348-7.082H18.97l-3.317 7.082H13.28L23.34 26.85h.52zm-.268 4.57l-3.65 7.793h7.282l-3.632-7.792zM37.08 26.85h4.24c2.433 0 4.074.106 4.923.32 1.216.303 2.21.926 2.982 1.867.772.94 1.158 2.125 1.158 3.548 0 1.434-.377 2.618-1.13 3.55-.752.93-1.79 1.557-3.112 1.88-.964.234-2.77.35-5.413.35h-1.52v10.01H37.08V26.848zm2.127 2.106v7.3l3.605.045c1.457 0 2.524-.132 3.2-.4a3.287 3.287 0 0 0 1.592-1.3c.386-.598.58-1.268.58-2.008 0-.72-.194-1.38-.58-1.978a3.19 3.19 0 0 0-1.527-1.278c-.633-.253-1.668-.38-3.106-.38h-3.763zM54.336 26.85h2.13v21.524h-2.13V26.85z"/></g><path fill="none" stroke="#898989" stroke-width="2" stroke-linecap="round" stroke-linejoin="round" stroke-miterlimit="10" d="M14.27 12.247h-3.09C5.558 12.247 1 16.864 1 22.56v33.306c0 5.695 4.558 10.312 10.18 10.312h51.64c5.622 0 10.18-4.617 10.18-10.312V22.56c0-5.696-4.558-10.313-10.18-10.313H50.947"/><path fill="none" stroke="#898989" stroke-width="2" stroke-linecap="round" stroke-linejoin="round" stroke-miterlimit="10" d="M14.27 12.247l4.175-4.425H46.19l4.758 4.46"/><path fill="none" stroke="#898989" stroke-linecap="round" stroke-linejoin="round" stroke-miterlimit="10" d="M6.667 58.077h60.666M18.71 13.262h27.797"/></svg>