<svg xmlns="http://www.w3.org/2000/svg" width="74" height="74" viewBox="0 0 74 74"><path fill="none" stroke="#F39800" stroke-linecap="round" stroke-linejoin="round" stroke-miterlimit="10" d="M33.743 51.847v6.037A3.26 3.26 0 0 0 37 61.146a3.26 3.26 0 0 0 3.257-3.262v-6.037a8.347 8.347 0 0 0 5.074-7.682c0-4.61-3.73-8.344-8.33-8.344s-8.33 3.737-8.33 8.345a8.347 8.347 0 0 0 5.073 7.682z"/><path fill="none" stroke="#898989" stroke-width="2" stroke-linecap="round" stroke-linejoin="round" stroke-miterlimit="10" d="M23.345 26.31V14.68C23.345 7.125 29.46 1 37 1c7.54 0 13.655 6.125 13.655 13.68v5.386M58.13 73c4.6 0 8.33-3.736 8.33-8.344v-30c0-4.61-3.73-8.344-8.33-8.344H15.87c-4.6 0-8.33 3.736-8.33 8.344v30c0 4.61 3.73 8.344 8.33 8.344h42.26z"/><path fill="none" stroke="#898989" stroke-linecap="round" stroke-linejoin="round" stroke-miterlimit="10" d="M15.87 68.886a4.23 4.23 0 0 1-4.222-4.23v-30a4.23 4.23 0 0 1 4.223-4.23h42.26a4.23 4.23 0 0 1 4.222 4.23v30a4.232 4.232 0 0 1-4.223 4.23H15.87z"/></svg>