<svg xmlns="http://www.w3.org/2000/svg" xmlns:xlink="http://www.w3.org/1999/xlink" width="74" height="74" viewBox="0 0 74 74"><defs><circle id="a" cx="121" cy="37" r="36"/></defs><clipPath id="b"><use xlink:href="#a" overflow="visible"/></clipPath><g clip-path="url(#b)"><path fill="none" stroke="#2EA7E0" stroke-linecap="round" stroke-linejoin="round" stroke-miterlimit="10" d="M97.296 26.312l.58-2.74-3.492-1.32-1.124 2.657-3.026-1.053-.057-3.196-.077-4.263-10.23.167.064.225-.572-.217-6.04.1L73 17.865l8.045 2.797 3.364 11.573.703 2.616 3.388 1.942 1.98.936.06 3.874.082 3.856 2.13 2.314-1.668 7.906 1.34 4.67 7.987-13.012 1.71-2.753-7.718-4.707.172-.837-4.11-2.392-1.053-.768-2.352-1.714 3.34-1.178 2.913-1.027 3.53-3.592.456-2.056"/><path fill="none" stroke="#2EA7E0" stroke-width=".2" stroke-linecap="round" stroke-linejoin="round" stroke-miterlimit="10" d="M81.045 20.663l-1.11-3.874-.573-.217-6.04.1L73 17.865z"/></g><use xlink:href="#a" overflow="visible" fill="none" stroke="#2EA7E0" stroke-width="2" stroke-linecap="round" stroke-linejoin="round" stroke-miterlimit="10"/><path fill="none" stroke="#898989" stroke-width="2" stroke-linecap="round" stroke-linejoin="round" stroke-miterlimit="10" d="M52.4 3H7.17A4.18 4.18 0 0 0 3 7.188v59.624A4.18 4.18 0 0 0 7.17 71h54.675"/><g fill="none" stroke="#898989" stroke-linecap="round" stroke-linejoin="round" stroke-miterlimit="10"><path stroke-width="2" d="M71.27 57.03l-9.435 13.933L52.4 57.03V17.317c0-5.212 4.224-9.438 9.436-9.438s9.436 4.224 9.436 9.437V57.03z"/><path d="M53.23 57.063a9.438 9.438 0 0 1 17.23.042M56.543 63.146a9.387 9.387 0 0 1 5.293-1.623c1.962 0 3.784.6 5.293 1.624M52.4 26.528c0-5.212 4.224-9.438 9.436-9.438s9.436 4.225 9.436 9.438M59.1 17.482v34.33M64.572 17.482v34.33"/></g><g fill="none" stroke="#898989" stroke-linecap="round" stroke-linejoin="round" stroke-miterlimit="10"><path d="M51.563 56.82H3.183M51.563 17.18H3.183"/></g><g fill="none" stroke-width="2" stroke-linecap="round" stroke-linejoin="round" stroke-miterlimit="10"><path stroke="#EA5514" d="M21.743 27.753L37.76 37l-16.017 9.247z"/><circle stroke="#898989" cx="27.373" cy="37" r="14.729"/></g></svg>