<svg xmlns="http://www.w3.org/2000/svg" width="74" height="74" viewBox="0 0 74 74"><path fill="none" stroke="#898989" stroke-linecap="round" stroke-linejoin="round" stroke-miterlimit="10" d="M33.534 68.717l-4.26-4.27 4.26-16.675 4.26 16.676z"/><path fill="none" stroke="#898989" stroke-width="2" stroke-linecap="round" stroke-linejoin="round" stroke-miterlimit="10" d="M47.702 29.365c0 7.833-6.343 14.182-14.167 14.182s-14.167-6.35-14.167-14.182V15.182C19.368 7.35 25.71 1 33.534 1S47.7 7.35 47.7 15.182v14.183zM1.585 73V53.964c0-8.832 9.952-17.393 18.775-17.393M56.757 39.897C53.66 37.837 50.1 36.57 46.71 36.57M65.484 73V53.964"/><path fill="none" stroke="#898989" stroke-linecap="round" stroke-linejoin="round" stroke-miterlimit="10" d="M23.78 17.312h19.51"/><g fill="none" stroke="#F39800" stroke-linecap="round" stroke-linejoin="round" stroke-miterlimit="10"><path d="M62.245 17.403h6.665v6.663h-6.665zM62.245 25.847h6.665V48.95h-6.665zM70.692 17.403h2.357v6.663H70.69zM53.798 24.066h6.665v-6.663a6.664 6.664 0 0 0-6.665 6.663z"/></g></svg>