<svg xmlns="http://www.w3.org/2000/svg" width="74" height="74" viewBox="0 0 74 74"><g fill="none" stroke-linecap="round" stroke-linejoin="round" stroke-miterlimit="10"><g stroke="#22AC38"><circle cx="13.119" cy="22.516" r="2.223"/><circle cx="20.765" cy="22.516" r="2.223"/><circle cx="28.411" cy="22.516" r="2.223"/></g><path stroke="#898989" stroke-width="2" d="M40.53 28.9V11.73a3.338 3.338 0 0 0-3.34-3.335H4.34A3.338 3.338 0 0 0 1 11.73v21.863C1 39.948 6.16 45.1 12.526 45.1v-8.172H33.47"/><path stroke="#898989" stroke-width="2" d="M36.81 28.9h32.85A3.338 3.338 0 0 1 73 32.237V54.1c0 6.354-5.16 11.506-11.526 11.506v-8.172H36.81a3.338 3.338 0 0 1-3.34-3.335V32.235a3.34 3.34 0 0 1 3.34-3.335z"/><g stroke="#22AC38"><circle cx="45.589" cy="42.426" r="2.223"/><circle cx="53.235" cy="42.426" r="2.223"/><circle cx="60.881" cy="42.426" r="2.223"/></g></g></svg>