<svg xmlns="http://www.w3.org/2000/svg" width="74" height="74" viewBox="0 0 74 74"><g fill="none" stroke-linecap="round" stroke-linejoin="round" stroke-miterlimit="10"><path stroke="#898989" stroke-width="2" d="M47.707 29.365c0 7.833-6.344 14.182-14.17 14.182S19.37 37.197 19.37 29.365V15.182C19.37 7.35 25.713 1 33.54 1s14.168 6.35 14.168 14.182v14.183zM1.586 73V53.964c0-8.832 9.953-17.393 18.777-17.393M56.764 39.897c-3.097-2.06-6.656-3.326-10.05-3.326M65.49 73V53.964c0-1.408-.252-2.81-.713-4.17"/><path stroke="#898989" d="M23.782 17.312h19.513"/><path stroke="#EA5514" stroke-width="2" d="M72.414 32L38.938 65.503 23.405 49.957"/></g></svg>