<svg xmlns="http://www.w3.org/2000/svg" width="74" height="74" viewBox="0 0 74 74"><g fill="none" stroke-miterlimit="10"><g stroke="#898989" stroke-linejoin="round"><path d="M63.592 17.148c-6.115 2.81-15.716 4.62-26.51 4.62-10.892 0-20.567-1.843-26.674-4.695M10.408 56.852c6.115-2.81 15.716-4.62 26.51-4.62 10.892 0 20.567 1.843 26.674 4.695"/></g><ellipse stroke="#898989" stroke-linejoin="round" cx="37" cy="37" rx="17.467" ry="33.401"/><path stroke="#898989" stroke-linejoin="round" d="M3.554 37h66.892"/><path stroke="#898989" stroke-linecap="round" d="M37 70.4V3.6"/><ellipse stroke="#898989" stroke-width="2" stroke-linejoin="round" cx="37" cy="37" rx="33.446" ry="33.401"/><path stroke="#2EA7E0" stroke-width="2" stroke-linecap="round" d="M71.108 17.36c2.464-6.447 2.615-11.6-.105-14.318C67.375-.58 59.41.895 49.823 6.147 42.188 10.33 33.526 16.903 25.2 25.217c-8.324 8.314-14.907 16.965-19.094 24.59C.848 59.38-.63 67.337 2.996 70.96c2.826 2.82 8.283 2.55 15.087-.19"/></g></svg>