<svg xmlns="http://www.w3.org/2000/svg" width="841.89" height="595.28" viewBox="0 0 841.89 595.28"><path fill="#FDF8F5" stroke="#040000" stroke-width="2.04" stroke-miterlimit="10" d="M650.742 285.488s-5.414 20.818-9.335 28.34c-4.485 8.608-13.337 16.247-13.337 16.247s1.75-13.82.97-22.67c-.565-6.427-3.637-16.126-3.637-16.126s5.615.305 12.49-1.595c6.922-1.912 12.85-4.197 12.85-4.197z"/><path fill="#DF921E" stroke="#040000" stroke-width="3.06" stroke-miterlimit="10" d="M383.256 124.62s-6.79-11.315-9.7-14.225c-2.91-2.91-7.597-4.203-7.597-4.203s-14.226-20.044-16.328-21.014c-2.1-.97-14.87-3.88-14.87-3.88s-21.338-10.345-28.45-11.315c-7.115-.97-24.25-2.1-28.613 0-4.366 2.102-17.944 16.003-20.37 20.045-2.423 4.04-7.758 13.9-7.11 15.68.645 1.778 1.454 7.435 3.717 7.435s7.597.97 6.79 4.042c-.81 3.072-2.75 7.76-6.952 3.556-4.203-4.202-3.61-6.303-3.61-6.303s-2.21-3.234-3.987-.97c-1.78 2.263-8.244 12.77-8.568 14.548-.323 1.778-9.375 27.48-7.436 33.784 1.94 6.303 10.67 32.814 15.84 37.5 5.174 4.69 12.933 9.376 12.933 9.376s-3.88 4.042-3.556 8.244 2.103 11.962 7.437 14.71c5.335 2.747 15.52 6.143 18.752 7.112 3.232.97 6.95 1.13 6.95 1.13s-6.79 19.237-16.003 32.33c-9.214 13.095-24.732 29.42-24.732 29.42s13.9.647 21.66-2.91c7.76-3.556 15.195-11.962 16.65-13.416 1.454-1.455 3.394-1.78 3.394-1.78s-4.688 4.366-5.98 6.79c-1.294 2.425-1.617 10.83-7.113 17.78-5.496 6.952-21.662 27.966-30.228 34.755-8.57 6.79-27.643 20.046-32.654 21.663-5.01 1.616-15.84.808-15.84.808s19.396 18.105 39.118 22.308c19.72 4.204 37.825 5.012 45.26 2.75s18.59-6.79 21.5-9.862c2.91-3.07 7.598-9.86 7.598-9.86s1.293 3.394.323 6.304-3.718 10.83-6.628 12.933c-2.91 2.1-14.79 7.112-14.79 7.112s14.63-1.94 20.77-5.335c6.144-3.394 16.166-13.417 19.075-15.034s18.59-1.13 24.57 1.132c5.98 2.263 15.357 12.285 16.003 16.81.647 4.527 1.13 8.407 1.13 8.407s5.66-9.052 2.103-17.78c-3.556-8.73-9.538-14.55-9.538-14.55s16.49 8.568 24.41 15.196c7.92 6.63 18.266 10.185 26.994 27.157 8.73 16.973 5.012 17.62 8.568 24.248 3.556 6.627 24.086 19.074 35.4 26.672 11.316 7.597 31.36 22.307 32.653 24.57 1.293 2.263 14.872 17.297 20.692 19.236 5.82 1.94 14.71 3.233 20.528 2.747 5.82-.484 25.218-2.586 28.774-5.496 3.555-2.91 6.626-9.86 6.626-14.386 0-4.527.486-13.903 0-17.297-.484-3.394-4.526-16.65-6.79-23.115-2.262-6.466-3.716-22.146-2.585-33.46 1.133-11.316 5.12-30.068 9.592-39.12 4.472-9.052 9.322-21.66 10.938-27.965 1.617-6.304 3.556-13.255 3.556-13.255s6.95-5.01 9.7-11.638c2.748-6.628 6.304-17.458 8.728-20.367 2.425-2.91 7.112-8.34 7.112-8.34s4.85-2.167 12.286-3.298c7.436-1.132 21.337-3.556 25.702-5.173 4.364-1.617 10.506-3.073 13.9-6.468 3.395-3.394 6.305-8.73 8.244-14.87 1.94-6.144 6.79-23.278 0-29.906-6.79-6.627-29.905-9.052-33.945-9.7-4.042-.646-41.06-5.656-47.848-7.758-6.79-2.102-13.578-3.395-16.488-5.98-2.91-2.587-10.67-15.68-14.87-19.883-4.204-4.203-10.67-8.406-10.67-8.406s-10.83-2.103-15.842-4.528c-5.01-2.424-28.126-9.375-28.126-9.375s1.535-16.165-.163-29.985c-1.697-13.82-10.83-45.666-11.8-48.252-.97-2.586-2.586-5.82-2.586-5.82s1.132-6.465.162-9.537c-.97-3.07-3.717-6.143-3.717-6.143s-12.933-1.293-18.105-.97c-5.173.323-8.567.323-8.567.323s-5.335 2.425-10.345 3.88c-5.01 1.454-16.166 2.424-23.6 6.95-7.437 4.526-20.045 15.357-25.057 22.146-5.01 6.792-14.384 21.34-14.384 21.34z"/><path fill="#320E0F" d="M479.213 289.684l-19.275 32.897 13.558 25.823 49.17 12.703 23.693-12.703-11.502-64.64z"/><path fill="#884822" d="M504.82 294.607s34.507 43.953 38.144 69.17c3.637 25.218 9.214 70.802 9.214 70.802l7.066 12.09.535-8.22s-.6-25.288 1.908-36.11c2.507-10.82 14.812-42.155 14.812-42.155l7.038-23.807s6.574-4.162 9.093-10.33c2.52-6.172 16.448-30.017 16.448-30.017l-3.313-10.543-94.046-1.725-6.58 4.607-.32 6.237z"/><path fill="#FDF8F5" stroke="#040000" stroke-width="2.04" stroke-miterlimit="10" d="M586.932 292.895s-2.356 18.614-4.688 23.277c-3.394 6.79-10.508 14.71-10.508 14.71s.043-10.253-1.13-16.973c-1.456-8.325-6.46-22.7-6.46-22.7s9.055 1.114 11.642 1.276c2.587.16 11.144.41 11.144.41z"/><path fill="#6D421E" d="M341.55 285.622s-1.293-3.234-5.01-4.85c-3.718-1.617-11.68-1.253-15.437-.526-3.76.728-12.488 4.97-15.034 7.275-2.548 2.305-6.386 8.512-6.386 8.512s3.556-2.65 6.79-3.944c3.232-1.293 4.687-.81 4.687-.81s-14.386 11.802-16.165 15.035c-1.777 3.233-1.777 6.87-1.777 6.87s4.607-5.74 9.375-7.678c4.77-1.94 15.275-1.94 18.59-3.233 3.313-1.293 4.607-3.507 6.143-6.24 1.536-2.73 3.637-6.125 5.82-7.742s5.172-2.02 5.172-2.02l3.232-.648z"/><path fill="#F3EDAD" stroke="#040000" stroke-width="2.04" stroke-miterlimit="10" d="M437.24 217.083s-4.52 5.496-6.138 8.082-4.203 10.345-4.203 10.345l-3.072 4.526s1.293.808 4.687 0c3.395-.81 8.723-3.556 8.723-3.556l2.754-3.072s2.75 1.78 6.305 1.455c3.556-.323 11.962-2.102 11.962-2.102s10.505 2.103 14.708 4.69c4.204 2.585 12.933 5.01 12.933 5.01l14.064-3.88c4.042-1.454 13.58-6.304 21.985-8.81 8.405-2.505 24.408-3.974 24.408-3.974s-12.447.633-17.46 0c-5.01-.63-16.648-8.39-26.67-10.33-10.023-1.94-20.045 1.778-20.045 1.778s-6.303 3.395-11.154 4.042c-4.85.647-12.61 1.778-16.812.808-4.203-.97-8.89-3.07-8.89-3.07s.323-3.558-2.263-4.69c-2.586-1.132-5.826 2.75-5.826 2.75z"/><path fill="#FDF8F5" stroke="#040000" stroke-width="2.04" stroke-miterlimit="10" d="M567.1 466.33s5.122-3.058 6.74-4.513c1.615-1.454 6.627-4.364 6.627-4.364s.808 6.143-1.455 10.183c-2.263 4.042-10.028 15.19-10.028 15.19l-.554-11.493-1.33-5.004z"/><path fill="#1B1909" stroke="#040000" stroke-width="1.02" stroke-miterlimit="10" d="M435.79 219.628s-4.727 7.275-6.182 9.7c-1.454 2.424-5.82 10.91-5.82 10.91s4.002-.243 7.033-1.09c3.032-.85 6.306-2.546 7.276-3.395.97-.85 2.545-2.668 2.545-2.668s3.88 1.455 8.246 1.213c4.364-.243 10.304-2.667 12.73-4.365 2.423-1.697 12.243-7.516 19.032-9.7 6.79-2.18 16.61-1.09 18.792-.605 2.182.484 12.245 13.457 12.245 13.457s3.88-2.402 6.668-3.505c2.788-1.102 13.457-3.042 13.457-3.042s-16.852-7.516-22.307-8.73c-5.455-1.212-13.942-3.03-22.186-1.697-8.245 1.335-8.245 3.032-14.67 4.366-6.426 1.334-15.155 2.06-18.792 1.455-3.638-.606-5.7-1.697-5.7-1.697s.365-3.15-2.423-5.212c-2.788-2.06-5.092-.85-6.183 0-1.092.85-3.76 4.608-3.76 4.608z"/><path fill="#0C0705" stroke="#040000" stroke-width="2.04" stroke-miterlimit="10" d="M473.496 223.75s2.274 6.48 4.324 8.446c2.91 2.79 8.527 3.557 11.678 3.072 3.152-.484 7.477-2.182 9.214-5.698 1.42-2.87 1.456-9.82 1.456-9.82s-9.336-1.616-14.67-.486c-5.334 1.132-12.002 4.487-12.002 4.487z"/><path fill="#6D421E" d="M313.828 218.863c-2.182 9.054-12.367 13.01-12.367 13.01s32.492 2.425 37.343 0c4.85-2.424 10.426-14.305 12.365-16.488 1.94-2.182 9.215-8.486 13.335-12.366 4.122-3.88 12.15-15.368 12.15-15.368s-5.82-36.733-25.822-65.1c-20.002-28.368-61.977-35.92-61.977-35.92s-11.88 9.7-16.245 20.854 9.213 21.337 9.213 21.337-6.698.727-10.077-.484c-3.38-1.214-5.197-8.124-5.197-8.124s-2.545 13.942 2.546 20.853c5.092 6.91 11.64 8.728 11.64 8.728s-11.034 5.334-19.278-.848c-8.243-6.183-6.79-14.064-6.79-14.064s-7.4 11.793-4.727 22.914c3.03 12.608 13.82 16.245 19.762 17.215 5.94.97 19.76-3.152 19.76-3.152s3.273 6.587-1.738 11.922c-5.012 5.335-13.094 5.82-20.045 3.556-6.95-2.262-9.536-6.304-9.536-6.304s3.626 13.018 20.368 18.752c11.8 4.04 20.853 1.778 20.853 1.778s1.132 8.406-6.142 10.67c-7.275 2.262-19.56.16-19.56.16s8.89 7.113 19.236 7.922c10.346.806 20.934-1.455 20.934-1.455z"/><path fill="#36270F" d="M338.317 143.25s10.67 11.517 16.973 30.914c6.304 19.397 7.07 30.836 7.07 30.836l-7.814 7.094s-3.4 3.14-4.208 4.434c-.808 1.293-2.758 4.56-2.758 4.56s2.617-18.065-.778-36.798c-3.393-18.733-8.485-41.04-8.485-41.04z"/><path fill="#6D421E" d="M381.598 128.176s8.98 18.557 9.093 28.288c.086 7.285-6.788 17.62-6.788 17.62s13.416-21.5 24.57-32.168c4.766-4.56 14.225-8.568 14.225-8.568s-11.112-1.908-13.416-7.76c-2.1-5.333-.04-13.67 3.072-20.69 3.8-8.568 24.012-28.602 24.012-28.602s-16.94.516-37.013 24.85c-9.555 11.584-17.752 27.03-17.752 27.03z"/><path fill="#984D23" d="M495.46 297.202s-24.434 34.167-32.192 55.99c-7.76 21.823-7.638 27.978-6.957 38.07l2.825 15.24s-4.596-7.345-7.506-15.104c-1.51-4.025-6.407-15.68-8.594-20.853-2.186-5.174-5.166-13.034-7.174-18.08-1.37-3.448-5.914-15.962-4.086-21.88 2.042-6.61 10.998-12.103 21.757-16.59 35.683-14.877 41.927-16.793 41.927-16.793z"/><path fill="#E68361" d="M566.64 478.872s-2.1 8.568-5.818 10.83c-3.717 2.264-10.128 3.504-14.387 3.073-4.805-.487-7.863-3.294-9.803-5.233-1.94-1.94-3.613-8.184-4.583-9.64-.97-1.453-16.328-16.648-22.147-24.084-5.82-7.436-15.518-22.146-22.63-27.804-7.114-5.657-21.736-14.874-24.3-16.005-2.563-1.133-7.764-9.59-9.89-14.972-2.128-5.383-18.544-46.173-18.544-46.173s-4.134-12.55-3.06-16.922c1.075-4.373 4.483-7.968 6.385-9.414 1.902-1.448 10.726-6.447 10.726-6.447s-12.305 4.356-17.24 9.943c-4.938 5.586-8.077 12.195-7.437 18.67.64 6.475 3.47 11.446 5.65 15.527 2.18 4.08 6.986 13.51 9.316 19.03 2.327 5.52 5.75 13.746 7.148 19.18 1.4 5.434 4.137 11.503 6.162 14.652 2.026 3.15 12.048 7.998 15.41 9.846 3.36 1.847 7.996 6.31 10.507 8.36 2.51 2.053 9.4 7.328 11.655 10.533 2.255 3.206 9.723 16.408 11.738 19.995 2.013 3.587 8.983 17.168 14.23 23.255 5.246 6.085 9.965 10.342 17.587 12.7 7.622 2.357 16.25 3.65 19.104 3.517 5.835-.277 11.57-4.49 12.307-7.153.735-2.662 1.914-15.265 1.914-15.265z"/><path fill="#821C20" d="M472.545 333.25s5.35 1.918 8.1 4.342c2.747 2.425 1.94 3.395 1.94 3.395s2.263-3.152 6.143-3.556c3.88-.403 9.376 1.86 9.376 1.86s.243-4.284 4.365-7.678c4.12-3.395 8.566-1.455 8.566-1.455s16.49 4.203 23.762 13.498c7.274 9.295 9.214 16.57 11.638 29.905 2.425 13.337 1.78 19.317 3.072 28.046 1.293 8.73 7.603 35.41 9.936 43.438 2.332 8.027 8.672 27.4 7.858 31.074-.813 3.673-.66 13.232-11.878 15.86-10.435 2.445-18.11-.34-21.712-9.552-3.602-9.21-22.28-24.18-28.38-34.718-6.097-10.54-18.742-22.894-26.693-27.664-22.575-13.54-20.885-12.69-22.33-28.78-1.444-16.09 3.95-29.165 3.95-29.165s3.444-10.688 5.553-15.264c2.11-4.578 6.732-13.587 6.732-13.587z"/><path fill="#6B1317" d="M489.396 421.14s10.407 8.105 16.47 19.017 11.637 16.488 13.577 18.428c1.94 1.94 15.275 15.195 16.003 17.175.727 1.98 2.424 8.77 7.76 11.437 5.333 2.667 8.97 1.697 11.152 1.213 2.182-.486 5.82-1.09 7.517-6.426 1.697-5.334.484-8.607-1.577-14.427-2.06-5.82-6.425-16.973-6.91-24.247-.485-7.275-.405-10.104-.405-10.104s-1.536 5.012-1.374 10.992c.16 5.98 1.373 11.315 3.475 16.973 2.1 5.66 5.253 12.448 4.93 15.762-.323 3.313-1.213 7.355-6.385 8.648-5.173 1.293-9.133-.09-11.477-2.752-2.344-2.663-2.99-6.22-5.414-9.776-2.426-3.556-13.984-15.034-17.217-18.347-3.233-3.313-9.295-11.558-13.174-16.973s-11.276-13.38-16.954-16.59z"/><path fill="#FDF8F5" stroke="#040000" stroke-width="2.04" stroke-miterlimit="10" d="M505.866 477.174s11.03-6.305 14.585-9.375c3.557-3.073 9.582-10.346 9.582-10.346s1.78 11.75-.408 19.527c-2.258 8.034-9.695 17.086-9.695 17.086s-5.748-5.684-7.745-8.4c-2-2.713-6.32-8.492-6.32-8.492z"/><path fill="#6D421E" d="M410.574 168.346s12.85-8.73 21.094-10.67c8.245-1.94 12.124-4.364 13.578-6.06 1.456-1.698 2-2.425 1.88-3.698-.12-1.273-4.85-4.667-4.85-4.667s7.335.667 9.88 2.668c2.548 2 4.164 5.132 4.164 5.132s7.68-2.667 12.85-2.505c5.174.16 24.57 7.597 27.238 10.426 2.668 2.83 7.032 10.59 7.032 10.59s9.94 3.514 15.518 5.697c5.577 2.183 15.276 6.668 17.943 7.275 2.668.606 9.7 1.09 11.518 2.18 1.82 1.092 7.72 6.67 10.143 9.337 2.426 2.666 8.165 16.002 11.317 18.305 3.15 2.304 17.215 6.91 24.247 8.244 7.032 1.333 22.307 4.12 29.46 4.606 7.153.486 37.34-.12 43.16 8.366 5.82 8.486 6.183 13.335 3.88 25.338s-4.324 19.438-18.064 23.156-21.176 6.95-32.33 9.214c-11.154 2.263-24.41 6.466-37.987 5.82-13.578-.648-46.393-5.98-54.96-5.82-8.568.162-24.894 3.233-34.27 6.79-9.375 3.555-48.98 20.53-48.98 20.53s-13.416 7.274-15.84 13.577c-2.425 6.305-6.467 11.638 2.748 28.45 9.214 16.812 14.388 31.683 14.388 31.683s4.85 16.488 8.567 21.66c3.718 5.173 19.074 10.023 21.823 13.903 2.75 3.88 10.022 8.082 14.387 13.093 4.364 5.012 8.243 13.417 11.8 19.56s10.67 19.397 12.124 21.176c1.454 1.778 8.244 11.154 16.002 14.71 7.76 3.556 20.213 5.085 23.266 4.754 3.304-.36 11.5-4.737 12.632-8.617 1.132-3.88-1.306 11.62-6.155 13.56-4.85 1.94-22.307 5.174-28.935 4.85-6.627-.323-17.78-1.293-23.924-6.628-6.143-5.334-11.154-12.608-15.68-16.327-4.526-3.717-29.096-22.468-35.724-26.51-6.627-4.04-24.893-16.65-26.833-18.266-1.94-1.617-7.922-9.376-9.053-15.033-1.132-5.658-4.042-15.842-7.598-21.985l-3.557-6.143s-8.244-6.467-16.165-11.64c-7.92-5.172-28.127-17.78-28.127-17.78s12.448 9.375 12.125 17.78c-.323 8.407-3.88 14.065-3.88 14.065s-.808-13.094-10.507-21.338c-9.7-8.243-23.277-6.143-29.582-3.717-6.304 2.424-15.032 11.477-22.954 14.387-7.92 2.91-19.56 4.04-19.56 4.04s17.297-6.465 20.206-12.93c2.91-6.467 1.293-12.772 1.293-12.772s-6.142 9.86-17.942 15.034c-11.8 5.172-21.984 5.334-27.32 5.495-5.333.162-20.043-.323-31.197-4.365-11.152-4.04-32.328-18.59-32.328-18.59s18.75 11.316 30.552 11.64c11.8.322 32.006-7.6 37.34-10.185 5.336-2.586 23.6-11.638 23.6-11.638s3.396-10.508 11.964-21.66c8.567-11.154 16.65-17.943 20.205-20.368 3.556-2.425 11.8-6.95 11.8-6.95s-9.05 10.02-11.476 17.133c-2.424 7.112-2.1 16.327-2.1 16.327s9.374-17.297 26.67-30.228c17.296-12.932 34.11-17.78 37.018-18.59 2.91-.808 9.052-1.13 9.052-1.13s-11.638 9.05-17.458 16.487c-5.82 7.435-11.478 18.54-11.478 18.54s14.87-14.66 25.863-21.936c10.992-7.273 30.875-16.165 34.108-17.295 3.233-1.133 10.508-2.75 10.508-2.75s-7.597 5.335-10.344 9.538c-2.75 4.203-2.263 7.597-2.263 7.597s7.76-1.65 15.357-6.24c7.597-4.59 16.488-11.38 20.367-15.42 3.88-4.042 14.71-15.68 20.69-19.236 5.98-3.557 29.42-11.963 29.42-11.963s-6.466 10.345-11.315 14.225c-4.85 3.88-16.002 9.538-16.002 9.538s8.567-.486 14.386-2.91c5.82-2.425 19.883-8.406 23.762-12.124 3.88-3.717 13.417-15.807 20.53-20.593 7.112-4.786 17.134-8.99 20.69-9.96 3.557-.97 8.73-1.292 8.73-1.292s-6.79-.322-12.285-4.848c-5.496-4.526-14.548-13.578-24.086-18.266-9.536-4.687-23.438-9.213-23.438-9.213s-12.125-16.65-27.16-22.47c-15.033-5.818-27.64-7.274-35.884-7.758-8.244-.486-18.43.16-23.925 1.454-5.496 1.286-15.356 3.146-15.356 3.146z"/><path fill="#100403" d="M626.374 225.812s-17.458 4.04-22.307 11.396c-2.65 4.018-9.94 18.67-2.425 26.187 0 0 11.8 8.164 15.196 12.69 3.394 4.526 9.213 12.447 15.195 13.74 5.98 1.293 17.62-3.556 22.793-6.305 5.173-2.75 10.992-13.578 11.638-16.65.647-3.07 5.82-7.273 7.273-10.67 1.455-3.393.88-13.254-1.933-18.62-2.403-4.584-5.34-7.404-16.172-8.697-10.83-1.294-20.367-3.274-29.258-3.07z"/><path fill="#D8D8D8" d="M631.405 233.994c-2.89.368-8.345 1.475-7.86 4.708 0 0-.686 3.112 7.194 2.142 7.88-.97 11.395-2.303 16.73-1.697 5.334.606 10.183 4.365 10.183 4.365s3.516 2.18 5.092 0c1.577-2.182.805-2.79-1.758-4.366-2.32-1.43-9.032-3.575-14.245-4.404-6.455-1.025-12.662-1.087-15.337-.748z"/><path fill="none" stroke="#040000" stroke-width="3.06" stroke-miterlimit="10" d="M383.256 124.62s-6.79-11.315-9.7-14.225c-2.91-2.91-7.597-4.203-7.597-4.203s-14.226-20.044-16.328-21.014c-2.1-.97-14.87-3.88-14.87-3.88s-21.338-10.345-28.45-11.315c-7.115-.97-24.25-2.1-28.613 0-4.366 2.102-17.944 16.003-20.37 20.045-2.423 4.04-7.758 13.9-7.11 15.68.645 1.778 1.454 7.435 3.717 7.435s7.597.97 6.79 4.042c-.81 3.072-2.75 7.76-6.952 3.556-4.203-4.202-3.61-6.303-3.61-6.303s-2.21-3.234-3.987-.97c-1.78 2.263-8.244 12.77-8.568 14.548-.323 1.778-9.375 27.48-7.436 33.784 1.94 6.303 10.67 32.814 15.84 37.5 5.174 4.69 12.933 9.376 12.933 9.376s-3.88 4.042-3.556 8.244 2.103 11.962 7.437 14.71c5.335 2.747 15.52 6.143 18.752 7.112 3.232.97 6.95 1.13 6.95 1.13s-6.79 19.237-16.003 32.33c-9.214 13.095-24.732 29.42-24.732 29.42s13.9.647 21.66-2.91c7.76-3.556 15.195-11.962 16.65-13.416 1.454-1.455 3.394-1.78 3.394-1.78s-4.688 4.366-5.98 6.79c-1.294 2.425-1.617 10.83-7.113 17.78-5.496 6.952-21.662 27.966-30.228 34.755-8.57 6.79-27.643 20.046-32.654 21.663-5.01 1.616-15.84.808-15.84.808s19.396 18.105 39.118 22.308c19.72 4.204 37.825 5.012 45.26 2.75s18.59-6.79 21.5-9.862c2.91-3.07 7.598-9.86 7.598-9.86s1.293 3.394.323 6.304-3.718 10.83-6.628 12.933c-2.91 2.1-14.79 7.112-14.79 7.112s14.63-1.94 20.77-5.335c6.144-3.394 16.166-13.417 19.075-15.034s18.59-1.13 24.57 1.132c5.98 2.263 15.357 12.285 16.003 16.81.647 4.527 1.13 8.407 1.13 8.407s5.66-9.052 2.103-17.78c-3.556-8.73-9.538-14.55-9.538-14.55s16.49 8.568 24.41 15.196c7.92 6.63 18.266 10.185 26.994 27.157 8.73 16.973 5.012 17.62 8.568 24.248 3.556 6.627 24.086 19.074 35.4 26.672 11.316 7.597 31.36 22.307 32.653 24.57 1.293 2.263 14.872 17.297 20.692 19.236 5.82 1.94 14.71 3.233 20.528 2.747 5.82-.484 25.218-2.586 28.774-5.496 3.555-2.91 6.626-9.86 6.626-14.386 0-4.527.486-13.903 0-17.297-.484-3.394-4.526-16.65-6.79-23.115-2.262-6.466-3.716-22.146-2.585-33.46 1.133-11.316 5.12-30.068 9.592-39.12 4.472-9.052 9.322-21.66 10.938-27.965 1.617-6.304 3.556-13.255 3.556-13.255s6.95-5.01 9.7-11.638c2.748-6.628 6.304-17.458 8.728-20.367 2.425-2.91 7.112-8.34 7.112-8.34s4.85-2.167 12.286-3.298c7.436-1.132 21.337-3.556 25.702-5.173 4.364-1.617 10.506-3.073 13.9-6.468 3.395-3.394 6.305-8.73 8.244-14.87 1.94-6.144 6.79-23.278 0-29.906-6.79-6.627-29.905-9.052-33.945-9.7-4.042-.646-41.06-5.656-47.848-7.758-6.79-2.102-13.578-3.395-16.488-5.98-2.91-2.587-10.67-15.68-14.87-19.883-4.204-4.203-10.67-8.406-10.67-8.406s-10.83-2.103-15.842-4.528c-5.01-2.424-28.126-9.375-28.126-9.375s1.535-16.165-.163-29.985c-1.697-13.82-10.83-45.666-11.8-48.252-.97-2.586-2.586-5.82-2.586-5.82s1.132-6.465.162-9.537c-.97-3.07-3.717-6.143-3.717-6.143s-12.933-1.293-18.105-.97c-5.173.323-8.567.323-8.567.323s-5.335 2.425-10.345 3.88c-5.01 1.454-16.166 2.424-23.6 6.95-7.437 4.526-20.045 15.357-25.057 22.146-5.01 6.792-14.384 21.34-14.384 21.34z"/><path fill="#6B1317" d="M500.288 351.853s6.93 33.283 13.84 47.102c6.91 13.82 22.55 38.188 25.458 48.735 2.91 10.546 5.455 18.548 5.455 18.548s-7.25-18-10.16-23.495c-2.908-5.496-9.72-12.922-15.68-25.056-13.577-27.64-18.65-52.315-18.912-65.834zM487.215 348.403s4.1 20.466 9.68 30.893c5.575 10.426 6.06 12.608 12.123 25.46 6.06 12.85 10.67 20.124 10.67 20.124s-13.095-18.063-17.944-29.46c-4.85-11.396-10.306-21.46-11.154-25.824-.85-4.363-3.375-21.193-3.375-21.193z"/><path fill="#3E3A39" stroke="#040000" stroke-width="1.02" stroke-miterlimit="10" d="M663.38 258.626s-2.414-5.173-1.12-7.598 4.85-5.496 4.85-5.496 2.423-1.482 3.232 1.038c.808 2.52 1.293 4.51 0 5.293-1.293.782-4.365 1.105-5.173 2.56-.81 1.455.322 3.495.322 3.495s.07.687-.778 1.052c-.848.364-1.334-.344-1.334-.344zM621.416 252.752s4.365-6.182 8.366-6.182c4 0 14.245 4 13.668 7.638-.575 3.637-2.568 5.873-5.377 6.52-2.808.647-3.455-1.454-4.263-2.1-.808-.648-2.586-3.073-5.173-3.72-2.586-.646-2.798 1.133-5.116.97-2.32-.16-2.717-2.323-2.104-3.126z"/></svg>