<svg xmlns="http://www.w3.org/2000/svg" width="195.697" height="50" viewBox="0 0 195.697 50"><g fill="#FFF"><path d="M25.984 46.205c.575-1.047 1.6-2.115 1.642-5.112.04-2.997-2.258-5.05-2.423-5.132-.164-.08-1.868-1.374-4.99-1.272-3.12.103-4.823.39-5.81.513-.984.124-3.037.39-4.146.39-1.11 0-2.69-.348-3.387-.697-.698-.35-2.36-1.555-3.06-2.892-.697-1.336-1.005-2.835-1.005-2.835l8.828-3.962s1.047-.534 1.478-1.067c.432-.534.658-1.047.658-1.047s.04-1.602.452-2.65c.41-1.046 1.11-1.518 1.11-1.518l4.29-3.736s-2.045-2.207-2.423-4.065c-.84-4.132-.456-7.855-.456-7.855s1.8 3.98 2.218 4.705c.647 1.12 1.647 2.186 1.647 2.186s.023-1.033.718-2.73c.263-.644 1.796-3.15 1.796-3.15s.6 2.02 1.464 3.067c.632.767 1.054.955 2.158 1.46 1.294.593 1.968 1.68 2.666 2.886.134.23.39.717.39.717s3.474.438 7.19 1.916 7.31 4.147 7.31 4.147l-3.988.78s3.778.862 6.574 3.182c2.342 1.942 3.24 2.99 3.26 3.016.002-.125.005-.25.005-.374C50.146 11.226 38.92 0 25.073 0S0 11.226 0 25.073C0 38.003 9.787 48.645 22.356 50c.03-.026 3.056-2.753 3.628-3.795zM80.24 37.035l-4.048-15.348h-4.87l-4.064 15.61-4.235-15.61H58.34l5.703 20.356h6.136l3.446-13.292h.062l3.617 13.293h6.012l5.193-20.356h-4.498zM91.18 21.687h4.806v3.864H91.18zM91.18 27.004h4.806v15.04H91.18zM98.948 21.687h4.807v20.355h-4.807zM118.762 27.58a2.78 2.78 0 0 0-1.685-.575h-8.46a2.808 2.808 0 0 0-2.808 2.808v9.423a2.808 2.808 0 0 0 2.807 2.808h8.46c.635 0 1.214-.22 1.685-.574v.574h4.838V21.687h-4.838v5.892zm-.562 12.87h-7.118a.562.562 0 0 1-.562-.56V29.218c0-.31.252-.562.562-.562h7.118c.31 0 .562.25.562.562V39.89c0 .31-.25.56-.562.56zM138.005 27.58a2.78 2.78 0 0 0-1.685-.575h-8.46a2.808 2.808 0 0 0-2.808 2.808v9.423a2.808 2.808 0 0 0 2.808 2.808h8.46c.635 0 1.214-.22 1.685-.574v.574h4.838V21.687h-4.838v5.892zm-.562 12.87h-7.12a.56.56 0 0 1-.56-.56V29.218c0-.31.25-.562.56-.562h7.12c.31 0 .56.25.56.562V39.89c.002.31-.25.56-.56.56zM176.644 26.443v1.136a2.783 2.783 0 0 0-1.684-.575h-8.46a2.808 2.808 0 0 0-2.808 2.808v9.423a2.808 2.808 0 0 0 2.808 2.808h8.46c.635 0 1.214-.22 1.684-.574v4.034c0 .31-.25.56-.56.56H163.69l.684 1.653h14.298a2.808 2.808 0 0 0 2.808-2.808V26.443h-4.838zm-.562 14.008h-7.118a.56.56 0 0 1-.56-.56V29.218c0-.31.25-.562.56-.562h7.118c.31 0 .56.25.56.562V39.89c.002.31-.25.56-.56.56zM159.058 27.004H147.01a2.808 2.808 0 0 0-2.808 2.808v9.423a2.808 2.808 0 0 0 2.808 2.808h12.048a2.808 2.808 0 0 0 2.808-2.808v-9.423a2.808 2.808 0 0 0-2.808-2.808zm-1.904 12.855c0 .31-.25.56-.56.56h-7.12a.562.562 0 0 1-.56-.56V29.187c0-.31.25-.562.56-.562h7.12c.31 0 .56.25.56.562v10.67z"/><g><path d="M190.176 22.165v.48h-1.714v4.562h-.58v-4.563h-1.714v-.48h4.008zM195.117 23.653c0-.084.025-.336.076-.756a2.9 2.9 0 0 0 .025-.278l-.025-.026c-.05.27-.11.488-.177.656l-1.613 3.958h-.328l-1.588-3.983c-.067-.268-.117-.48-.15-.63l-.026.025c.035.438.05.79.05 1.06v3.528h-.53v-5.042h.757l1.462 3.655c.066.203.134.44.2.707h.026c.05-.235.117-.462.202-.68l1.462-3.68h.756v5.04h-.58v-3.554z"/></g></g></svg>