<svg xmlns="http://www.w3.org/2000/svg" width="147.127" height="33.08" viewBox="0 0 147.127 33.08"><g fill="#FFF"><path d="M32 17.638h-8.1v15.37h-2.447v-15.37H10.98c-.47 5.687-2.34 11.266-9 15.442-.396-.504-1.26-1.332-1.872-1.728 6.12-3.815 7.955-8.71 8.423-13.715H0v-2.304h8.675c.036-.54.036-1.08.036-1.62V4.86H1.37V2.555h29.48V4.86H23.9v10.475H32v2.303zm-10.546-2.304V4.86h-10.33v8.854c0 .54 0 1.08-.037 1.62h10.367zM66.74 15.37c-1.51 4.536-3.958 8.136-7.018 10.907 3.167 2.195 7.02 3.815 11.482 4.68-.54.503-1.15 1.476-1.476 2.123-4.644-1.08-8.603-2.844-11.878-5.29-3.276 2.41-7.127 4.14-11.16 5.254-.25-.61-.827-1.512-1.26-2.016 3.78-.936 7.416-2.556 10.584-4.787-2.268-2.087-4.14-4.57-5.615-7.414-2.52 4.57-5.94 8.35-10.656 11.303-.324-.505-1.152-1.405-1.764-1.8 6.587-4.068 10.62-10.044 12.958-17.604h-5.076c-2.304 0-3.456.18-3.78.576-.18-.54-.54-1.728-.827-2.304.468-.107.864-.647 1.26-1.403.432-.72 1.764-3.636 2.376-6.37l2.593.467c-.72 2.34-1.692 4.787-2.664 6.695h6.767A58.315 58.315 0 0 0 53.1.035l2.663.433c-.396 2.77-.864 5.398-1.476 7.92h15.73l-.036 2.338H53.64c-.397 1.368-.83 2.7-1.333 3.96H64.69l.43-.108 1.62.792zm-14.9 1.62a22.788 22.788 0 0 0 5.974 7.847c2.412-2.123 4.427-4.75 5.723-7.847H51.84zm13.713-9.755c-1.008-1.403-3.06-3.672-4.607-5.363l1.8-1.116c1.584 1.584 3.672 3.816 4.68 5.147l-1.873 1.332zM103.857 8.892c-2.088 5.795-4.932 10.402-8.64 14.11 4.068 3.49 8.963 6.083 14.76 7.56-.54.503-1.225 1.51-1.62 2.16-5.904-1.62-10.87-4.356-14.938-7.992-4.07 3.563-9.036 6.19-15.084 8.135-.252-.54-.972-1.656-1.476-2.195 6.012-1.765 10.87-4.248 14.83-7.632-3.78-3.887-6.695-8.675-8.782-14.146h-5.58v-2.34h32.216v2.34h-5.687zm-18.538 0c1.943 4.75 4.643 8.963 8.133 12.454 3.312-3.312 5.832-7.45 7.703-12.454H85.32zm8.1-2.556c-.434-1.44-1.62-3.852-2.737-5.615L93.13 0c1.116 1.692 2.376 3.996 2.88 5.508l-2.59.828zM126.646 19.834c-.576-1.188-1.98-3.49-3.132-5.29V32.9h-2.304V15.263c-1.224 4.21-2.95 8.387-4.715 10.87-.324-.61-.9-1.548-1.332-2.088 2.23-3.06 4.57-8.854 5.65-13.894h-4.895V7.92h5.29V.144h2.305V7.92h4.57v2.23h-4.57v1.44c1.008 1.26 3.96 5.4 4.57 6.443l-1.437 1.8zm12.166-6.443h8.063v19.295H144.5V30.31h-17.098v-2.305H144.5V22.82h-15.874v-2.194H144.5v-4.932h-16.306V13.39h8.314V.288h2.304V13.39zm-7.127-1.87c-.61-2.196-2.052-5.652-3.24-8.208l1.98-.72c1.26 2.592 2.7 5.94 3.348 8.1l-2.088.827zm15.442-8.352c-1.224 2.88-2.77 6.407-4.03 8.603l-1.91-.646c1.225-2.195 2.772-5.976 3.564-8.64l2.377.684z"/></g></svg>