<svg xmlns="http://www.w3.org/2000/svg" xmlns:xlink="http://www.w3.org/1999/xlink" width="100" height="200" viewBox="0 0 100 200"><circle fill="#333" cx="50" cy="50.006" r="40" opacity=".2"/><path fill="#F4F6F9" d="M50 15.006c19.3 0 35 15.7 35 35s-15.7 35-35 35-35-15.7-35-35 15.7-35 35-35m0-5c-22.09 0-40 17.91-40 40s17.91 40 40 40 40-17.91 40-40-17.91-40-40-40z"/><image overflow="visible" opacity=".2" width="111" height="122" xlink:href="9D192A45.png" transform="matrix(.24 0 0 .24 39.888 35.447)"/><path fill="#F5F5F5" d="M44.888 61.566a1.997 1.997 0 0 1-2-2v-19.12a2 2 0 0 1 3-1.73l16.557 9.56a2 2 0 0 1 0 3.463l-16.557 9.558c-.31.178-.655.268-1 .268z"/><g><image overflow="visible" opacity=".2" width="359" height="359" xlink:href="9D192A47.png" transform="matrix(.24 0 0 .24 7 7.006)"/><path fill="#F5F5F5" d="M50 15.006c19.3 0 35 15.7 35 35s-15.7 35-35 35-35-15.7-35-35 15.7-35 35-35m0-5c-22.09 0-40 17.91-40 40s17.91 40 40 40 40-17.91 40-40-17.91-40-40-40z"/></g><g><circle fill="#333" cx="50" cy="149.994" r="40" opacity=".2"/><path fill="#F4F6F9" d="M50 114.994c19.3 0 35 15.7 35 35s-15.7 35-35 35-35-15.7-35-35 15.7-35 35-35m0-5c-22.09 0-40 17.91-40 40s17.91 40 40 40 40-17.91 40-40-17.91-40-40-40z"/><image overflow="visible" opacity=".2" width="136" height="147" xlink:href="9D192A42.png" transform="matrix(.24 0 0 .24 36.888 132.434)"/><path fill="#FFF" d="M44.888 161.553a1.997 1.997 0 0 1-2-2v-19.12a2 2 0 0 1 3-1.73l16.557 9.56a2 2 0 0 1 0 3.463l-16.557 9.56c-.31.178-.655.267-1 .267z"/></g><g><image overflow="visible" opacity=".2" width="384" height="384" xlink:href="9D192A43.png" transform="matrix(.24 0 0 .24 4 103.994)"/><path fill="#FFF" d="M50 114.994c19.3 0 35 15.7 35 35s-15.7 35-35 35-35-15.7-35-35 15.7-35 35-35m0-5c-22.09 0-40 17.91-40 40s17.91 40 40 40 40-17.91 40-40-17.91-40-40-40z"/></g></svg>