<svg xmlns="http://www.w3.org/2000/svg" width="16" height="14.763" viewBox="0 0 16 14.763"><g fill="none" stroke="#999899" stroke-linecap="round" stroke-linejoin="round" stroke-miterlimit="10"><path d="M15.29 10.324H.71c-.116 0-.21.265-.21.59v2.76c0 .324.094.59.21.59h14.58c.116 0 .21-.266.21-.59v-2.76c0-.325-.094-.59-.21-.59zM4.487 13.09h7.026M15.29 5.398H.71c-.116 0-.21.264-.21.59v2.758c0 .325.094.59.21.59h14.58c.116 0 .21-.264.21-.59V5.988c0-.326-.094-.59-.21-.59zM4.486 8.162h7.028M15.29.5H.71C.595.5.5.765.5 1.09v2.76c0 .324.094.59.21.59h14.58c.116 0 .21-.265.21-.59V1.09c0-.325-.094-.59-.21-.59zM4.486 3.265h7.028"/></g></svg>